<?xml version="1.0" standalone="no"?>
<!DOCTYPE svg PUBLIC "-//W3C//DTD SVG 1.1//EN" "http://www.w3.org/Graphics/SVG/1.1/DTD/svg11.dtd" >
<svg xmlns="http://www.w3.org/2000/svg">
<metadata></metadata>
<defs>
<font id="olde_englishregular" horiz-adv-x="819" >
<font-face units-per-em="2048" ascent="1638" descent="-410" />
<missing-glyph horiz-adv-x="634" />
<glyph horiz-adv-x="0" />
<glyph horiz-adv-x="682" />
<glyph horiz-adv-x="409" d="M-305 -59h143l1022 1554h-143z" />
<glyph horiz-adv-x="913" d="M0 602l43 -20l35 73h78v-489l-119 -100l31 -37l73 61l115 -113l186 156l-30 37l-62 -51l-51 47v489q84 0 78 -2q41 4 57 41l58 123l-43 21l-29 -60h-121v344q20 14 43 37q78 -78 119 -78q47 0 104 54q20 23 41 47t41 47l-33 35q-57 -70 -82 -70q-39 0 -112 147 q-102 -201 -332 -282l18 -43l50 18v-256q-51 0 -60 -4q-23 -6 -37 -43zM465 616l31 -36l63 55l55 -47v-393q0 -152 91 -218l184 160l-31 37l-53 -47q-47 35 -47 131v340l102 92l-31 35l-63 -51l-115 104zM489 993l31 -37l43 37l117 -104l162 143l-31 37l-41 -35l-115 103z " />
<glyph horiz-adv-x="907" d="M0 602l43 -20l35 73h78v-489l-119 -100l31 -37l73 61l115 -113l186 156l-30 37l-62 -51l-51 47v489q84 0 78 -2q41 4 57 41l58 123l-43 21l-29 -60h-121v344q20 14 43 37q78 -78 119 -78q59 0 143 99q10 -47 10 -99v-913l-114 -98l30 -39l70 57l119 -111l186 164l-33 35 l-65 -61l-47 45v907q0 121 65 211l-32 27q-100 -106 -129 -201q-4 27 -9.5 56.5t-13.5 64.5l6 4l-8 8v6l-4 -2l-21 23q-57 -70 -82 -70q-39 0 -112 147q-102 -201 -332 -282l18 -43l50 18v-256q-51 0 -60 -4q-23 -6 -37 -43z" />
<glyph horiz-adv-x="1167" d="M0 242l313 118v-69l-65 -53l28 -37l193 153v66l82 31v-74l-59 -47l30 -39l185 151v68l235 88v-381q-133 49 -266 49q-231 0 -389 -127t-158 -307q0 -137 107 -225q102 -84 239 -84q82 0 162 37l-16 43q-92 -33 -162 -33q-106 0 -193 80q-84 80 -84 186q0 137 121 221 q106 74 252 74q258 0 434 -182l201 198l-35 35l-57 -59q-27 23 -53.5 41t-55.5 33v419l178 68l-4 119l-174 -68v58l41 36l-57 62l-64 -62l33 -36v-76l-235 -90v575q57 51 94 51q70 0 186 -161l184 180l-30 33l-47 -43q-102 104 -193 104q-74 0 -147 -61l-203 -168v-570 l-82 -32v548l29 25l-29 37l-156 -125v-256q-188 0 -188 -176q0 -49 22 -121l52 20q-12 25 -13 52q0 37 22.5 63.5t57.5 26.5q23 0 47 -19v-135l-313 -121v-112zM25 1126q0 -96 100 -190l33 33q-78 66 -78 147q0 41 25.5 71t66.5 30q37 0 117 -29q74 -27 117 -27q59 0 137 56 q4 2 32.5 25.5t86.5 70.5l-31 33q-66 -49 -113 -50l-117 37q-104 33 -159 33q-86 0 -151.5 -78t-65.5 -162z" />
<glyph horiz-adv-x="432" d="M0 283l141 106v-221l-116 -98l32 -39l70 57l117 -111l188 164l-33 35l-67 -61l-47 45v340l147 110v144l-147 -113v426q0 121 67 211l-33 27q-100 -106 -129 -201q-4 25 -10 59.5t-16 79.5l-45 -14q23 -90 22 -148v-553l-141 -108v-137z" />
<glyph horiz-adv-x="1071" d="M12 -14l27 -37q219 121 432 121t399 -121l168 252l-37 28l-55 -86q-117 80 -264 80q-193 0 -524 -164q225 170 282 256q53 92 93 161t65 116h254q41 0 59 41l90 205l-45 20l-45 -110h-239q4 4 5 8t3 6l92 190q100 205 287 336l-21 53q-199 -125 -407 -124 q-217 0 -342 149l-170 -252l39 -27l53 80q123 -92 260 -92q127 0 371 107q-66 -51 -117 -99.5t-88 -95.5q-82 -98 -152 -239h-260q-51 0 -67 -41l-82 -201l43 -19l39 105h254q-175 -381 -400 -606zM362 1692q164 -18 164 -179q0 -20 -6 -53l170 47l180 193l-34 35l-152 -164 q-98 164 -322 164v-43z" />
<glyph horiz-adv-x="610" d="M25 31l41 -31q61 68 174 68q102 0 223 -91l123 175l-39 26l-33 -47q-84 47 -158 47q-98 0 -229 -82l178 242q135 0 158 12q18 10 88 117l-39 29l-43 -62h-94l211 297l-37 29q-59 -59 -164 -60q-111 0 -201 78l-143 -205l39 -26l43 63q70 -39 137 -39q94 0 203 76 l-148 -213h-118q-39 0 -131 -141l38 -27l52 72h90zM113 1118q164 -18 163 -178q0 -20 -6 -53l170 47l181 192l-35 35l-152 -164q-98 164 -321 164v-43z" />
<glyph unicode=" "  horiz-adv-x="634" />
<glyph unicode="&#x09;" horiz-adv-x="634" />
<glyph unicode="&#xa0;" horiz-adv-x="634" />
<glyph unicode="!" horiz-adv-x="487" d="M37 1090l31 -37l55 45q28 -23 53 -31l49 -756l51 31l64 748q45 20 106 77l-30 37q-27 -27 -64 -26q-63 0 -114 79zM45 70l31 -37l59 51l117 -107l199 166l-31 37l-68 -57l-116 108z" />
<glyph unicode="&#x22;" horiz-adv-x="718" d="M143 1360l29 -490l88 64l29 487zM432 1360l27 -490l88 64l28 487z" />
<glyph unicode="#" d="M41 385h170l-57 -408l96 33l51 375h162l-57 -408l94 33l53 375h135l47 82h-170l29 205h135l47 84h-172l55 381l-96 -35l-47 -346h-162l54 381l-95 -35l-49 -346h-135l-47 -84h170l-29 -205h-135zM313 467l29 205h162l-29 -205h-162z" />
<glyph unicode="$" d="M31 -78q0 -121 90 -201q82 -74 207 -86v48q-94 0 -170 69q-74 70 -74 162q0 86 63 137q59 47 152 47v-291h47v291q74 -8 139 -53v-238h47v205l46 -32l157 276q53 96 53 156q0 111 -75 172q-51 43 -181 80v245q14 -23 24.5 -41t18.5 -28l191 190l-35 35l-57 -59 q-61 80 -142 108v154h-47v-140q-31 4 -49 6.5t-26 2.5q-25 0 -64 -7v138h-47v-150q-215 -80 -215 -276q0 -197 215 -273v-362q-115 -23 -188 -96q-80 -78 -80 -189zM168 901q0 59 36 103.5t95 44.5v-312q-131 55 -131 164zM346 211v342l139 -41v-307zM346 721v326 q82 -12 139 -80v-289zM532 193v303q162 -39 162 -168q1 -45 -71 -172z" />
<glyph unicode="%" horiz-adv-x="993" d="M35 743l28 -28l33 28l88 -59q72 72 181 72q4 0 17 -1t34 -3v41q-10 2 -15 2h-4h-4q-2 0 -8 -2v374l49 43l-28 29l-29 -27l-84 58q-49 -49 -107 -64q-35 -8 -125 -8v-39l27 -2v-369zM100 14h54l741 1338h-55zM180 799v362q33 8 68 25l47 -31v-369q-16 -2 -33 -7t-33 -13z M559 158l29 -29l33 29l88 -60q72 72 178 72q6 0 18.5 -1t32.5 -3v41q-8 2 -12 2h-4h-4q-2 0 -9 -2v375l49 43l-28 28l-31 -26l-84 57q-72 -72 -229 -72v-39l26 -2v-368zM702 213v362q41 12 70 25l45 -31v-368q-23 -6 -38 -11.5t-25 -9.5z" />
<glyph unicode="&#x26;" horiz-adv-x="1271" d="M25 168q0 -104 86 -166q78 -53 186 -53q211 0 365 225q45 -104 95 -167.5t132 -63.5q113 0 192 100q66 84 93 207h-44q-55 -150 -169 -150q-59 0 -87 33q-66 113 -104 197l145 221q45 -57 111 -57q92 0 186 180l-38 18q-49 -66 -87 -65q-43 0 -114 90l-228 -332l-176 375 q92 98 136 158q41 59 40 137q0 135 -147 264l-442 -455l34 -33l35 37q109 -25 201 -176l-186 -188q-66 -66 -107 -111t-61 -71q-47 -63 -47 -154zM186 258q0 106 90 215q45 41 88.5 84t86.5 86l186 -418q-106 -168 -262 -168q-86 0 -137.5 57.5t-51.5 143.5zM328 973 l172 176q121 -74 121 -199q0 -61 -80 -149q-96 154 -213 172z" />
<glyph unicode="'" horiz-adv-x="432" d="M143 1360l29 -490l88 64l29 487z" />
<glyph unicode="(" horiz-adv-x="438" d="M47 492q0 -446 221 -773q43 -66 76 -113.5t55 -80.5l39 24q-229 389 -229 943q0 342 82 589q80 248 147 355l-39 26l-131 -194q-221 -330 -221 -776z" />
<glyph unicode=")" horiz-adv-x="438" d="M0 -451l39 -24l131 194q221 327 221 773t-221 776q-43 66 -76 114l-55 80l-39 -26q229 -365 229 -944q0 -340 -79 -582q-39 -123 -77 -212t-73 -149z" />
<glyph unicode="*" d="M53 1047l275 2l6 -21l-252 -213l201 -74l86 263l22 2l148 -304l123 170l-236 160l4 23l334 28l-125 177l-223 -177l-19 15l88 323l-206 -57l83 -266l-22 -15l-277 177z" />
<glyph unicode="+" d="M41 516h321v-326l95 43v283h278l43 86h-321v326l-95 -43v-283h-278z" />
<glyph unicode="," horiz-adv-x="477" d="M94 59l33 -34l57 47q74 -49 74 -129q0 -86 -123 -205l27 -35q221 143 221 340q0 106 -96 184z" />
<glyph unicode="-" horiz-adv-x="425" d="M41 276l45 -18l31 72h133q68 0 90 53l45 113l-45 18l-27 -63h-159q-39 0 -72 -70q-4 -8 -14.5 -33.5t-26.5 -71.5z" />
<glyph unicode="." horiz-adv-x="477" d="M35 70l31 -37l59 51l117 -107l200 166l-32 37l-66 -57l-117 108z" />
<glyph unicode="/" horiz-adv-x="743" d="M-166 -475l103 61l819 1876l-160 -49z" />
<glyph unicode="0" d="M51 76l33 -35l59 57l168 -121q133 139 353 140q10 0 28.5 -1t46.5 -3v49l-57 2v792l88 82l-33 35l-55 -53l-160 117q-139 -141 -426 -142v-47q10 -2 22.5 -3t26.5 -1v-780zM289 184v770q102 23 145 54l105 -74v-782q-85 -13 -140 -50z" />
<glyph unicode="1" d="M160 920l33 -33l75 76q78 -53 78 -148v-596l-135 -135l37 -35l67 66l140 -138l209 207l-35 35l-74 -76l-59 66v659q0 199 -119 269z" />
<glyph unicode="2" d="M49 -6l39 -17q49 100 158 101q139 0 307 -101l162 191l-37 31l-60 -70q-76 33 -115.5 48.5t-43.5 17.5q-25 6 -78 6q-147 0 -244 -103q35 135 170 250q31 27 76 64t104 86q29 23 48.5 40t33.5 27q125 117 125 271v16t-2 35l47 2l2 49q-25 -2 -39 -2h-18 q-104 0 -198.5 56.5t-151.5 144.5q-92 -233 -273 -234l-2 -39q61 -18 119 -18q72 0 141 28q80 35 113 89q37 -25 103 -48q2 -18 3 -29.5t1 -15.5q0 -109 -109 -235q-49 -59 -149 -168q-23 -25 -39.5 -43t-26.5 -31q-127 -154 -166 -399z" />
<glyph unicode="3" d="M72 106l32 -40q57 49 89 49q49 0 94 -52q16 -23 34.5 -44t34.5 -42q160 190 377 191v47q-16 0 -33.5 -1t-35.5 -3v287l-205 129l184 86l2 184l51 -6v49q-201 27 -327 197q-25 -47 -62 -93q-51 -57 -86 -57q-43 0 -86 37l-29 -39q41 -37 97 -63q63 -33 108 -33 q96 0 154 82q8 -4 16 -9.5t17 -9.5v-256l-338 -157l20 -43l119 55l215 -137v-242q-10 -4 -24.5 -12t-30.5 -23q-86 86 -164 86q-55 0 -121 -41q-25 -20 -50 -39t-52 -37z" />
<glyph unicode="4" d="M59 340h406v-170l-117 -96l31 -37l65 51l117 -111l191 158l-31 37l-64 -55l-47 41v182l168 -2v49l-168 -2v573l109 91l-31 36l-63 -55l-109 107l-457 -652v-145zM203 387v221l264 369v-590h-264z" />
<glyph unicode="5" d="M72 111l28 -45q84 53 105 53q43 0 90 -53q33 -47 63 -89q117 164 371 191l-2 53l-53 -6v328l55 26l-18 43l-43 -18l-254 151l-226 -104l45 291h314q47 0 65 26q20 47 36 88t26 76l-45 15q-18 -55 -47 -56h-373l-74 -465l-26 -12l20 -45l176 84l225 -135v-332 q-41 -16 -73 -37q-82 88 -166 88q-47 0 -117 -41q-4 -4 -29.5 -22t-72.5 -53z" />
<glyph unicode="6" d="M47 78l33 -35l57 51l156 -117q137 141 348 142h25q20 0 59 -2v49l-53 2v379l98 90l-33 37l-69 -64l-164 127l-228 -211v410q14 6 27.5 15.5t30.5 19.5q74 -84 170 -84q39 0 63 12q53 35 93 60.5t65 46.5l-33 43q-59 -49 -88 -50q-49 0 -94 50q-18 23 -36.5 44t-35.5 44 q-84 -104 -164 -148q-90 -47 -215 -47v-49q43 0 74 6v-739zM276 182v277l148 139l104 -80v-360q-84 -11 -145 -54z" />
<glyph unicode="7" d="M94 829l43 -20l70 149q129 -47 213 -47q113 0 231 95q-98 -211 -274 -453q-39 -53 -64.5 -91t-36.5 -61q-47 -90 -47 -172q0 -152 123 -252l201 195l-33 35l-74 -72q-59 59 -59 131q0 82 84 254q33 63 65.5 126t65.5 126q100 203 141 348l-43 17q-45 -100 -159 -101 q-170 0 -303 101z" />
<glyph unicode="8" d="M47 72l33 -37l65 63l166 -121q137 137 328 138h25t67 -2l6 49q-37 6 -59 6v321l-168 103l240 82l-11 47l-61 -16v249l92 86l-31 35l-63 -55l-160 117q-57 -68 -154 -107q-98 -41 -184 -41q-12 0 -86 6v-49q10 -2 22.5 -3t26.5 -1v-268l170 -105q-166 -70 -241 -86l10 -47 l61 15v-293zM285 500l86 35l164 -99v-276q-89 -27 -138 -56l-110 84zM285 727v225q70 12 149 54l101 -76v-279l-76 -28z" />
<glyph unicode="9" d="M47 475l33 -37l72 64l163 -125l226 211v-412q-16 -8 -30.5 -16t-27.5 -17q-76 82 -170 82q-35 0 -61 -10q-53 -33 -93 -59.5t-67 -49.5l35 -43q45 49 90 50q47 0 92 -52q18 -23 37 -43t35 -41q76 94 166 142q86 41 211 53v47q-27 0 -45.5 -1t-28.5 -3v737l86 82l-33 37 l-57 -53l-156 119q-137 -143 -350 -144h-24t-58 2v-47q12 -2 25.5 -3t27.5 -1v-379zM289 596v360q69 1 145 52l107 -78v-275l-148 -141z" />
<glyph unicode=":" horiz-adv-x="477" d="M35 70l31 -37l59 51l117 -107l200 166l-32 37l-66 -57l-117 108zM35 616l31 -36l59 51l117 -111l200 168l-32 37l-66 -55l-117 108z" />
<glyph unicode=";" horiz-adv-x="477" d="M35 59l33 -34l57 47q74 -49 74 -129q0 -82 -123 -205l26 -35q223 143 224 340q0 106 -99 184zM35 616l31 -36l59 51l117 -109l200 166l-32 37l-66 -55l-117 108z" />
<glyph unicode="&#x3c;" horiz-adv-x="1024" d="M88 694l848 -565v203l-641 428l641 418v75l-848 -544v-15z" />
<glyph unicode="=" d="M41 375h694l43 88h-694zM41 659h694l43 86h-694z" />
<glyph unicode="&#x3e;" horiz-adv-x="1024" d="M88 129l848 545v14l-848 565v-202l641 -428l-641 -418v-76z" />
<glyph unicode="?" horiz-adv-x="634" d="M0 993l150 -135q-4 33 -6 48l-1 16q0 102 52 174q59 84 153 84q59 0 99 -35t40 -94q0 -78 -81 -168q-39 -39 -76 -78t-76 -80q-82 -94 -82 -178q0 -137 102 -236l35 29q-53 59 -53 137q0 49 84 133q70 70 106.5 109t45.5 49q84 106 83 203q0 115 -86 200.5t-200 85.5 q-213 0 -289 -264zM47 70l31 -37l61 51l115 -107l201 166l-31 37l-68 -57l-116 108z" />
<glyph unicode="@" horiz-adv-x="1263" d="M78 158l28 -37l68 57l264 -188q80 61 159 104t162 71t173 41t192 13v47q-193 0 -321 -33q-145 -37 -295 -129l-197 144v856q236 0 443 156l196 -144v-469l-131 -96q-20 27 -20 74v190l71 55l-26 33l-45 -33l-72 68q-49 -68 -143 -104q23 29 22 47q0 51 -61 51 q-63 0 -64 -60q0 -41 99 -133q-104 -90 -115 -110q-18 -29 -19 -70q0 -88 121 -113l129 105q8 -57 56 -107l319 240v438l115 99l-33 39l-74 -64l-254 182q-76 -70 -155.5 -115.5t-165.5 -72.5q-141 -43 -373 -43v-47h59v-846zM535 614q0 31 75 95l33 -35l33 28l-86 89 q45 14 86 36l20 -16v-205l-80 -65q-82 8 -81 73z" />
<glyph unicode="A" horiz-adv-x="1124" d="M-92 -156q0 -133 98 -227q103 -96 232 -96h18q16 0 45 2v49q-10 -2 -21.5 -3t-23.5 -1q-117 0 -201 70q-86 76 -86 188q0 98 74 164q70 57 170 57q133 0 240 -100l200 200l-32 37l-74 -71q-119 71 -254 71h-4l80 226h444l84 -283q39 -137 121 -180l203 200l-33 37 l-74 -73q-41 16 -59 49q-4 8 -11.5 26.5t-15.5 46.5l-268 893q-37 123 -62 158l19 59l-45 19l-19 -43q-63 45 -135 45q-106 0 -190 -76q-29 -23 -60.5 -63.5t-70.5 -98.5l39 -26q86 125 194 125q92 0 154 -88l-80 -209q-39 2 -59.5 3t-24.5 1q-156 0 -156 -178 q0 -55 25 -119l45 20q-10 31 -10 47q0 94 82 95q27 0 47 -21l-217 -592q-139 -16 -232 -108q-96 -96 -96 -232zM428 565l184 506l152 -506h-336z" />
<glyph unicode="B" horiz-adv-x="1310" d="M0 1124q0 -92 100 -190l33 35q-78 66 -78 147q0 41 25.5 71t66.5 30q33 0 113 -29q82 -29 121 -29q59 0 137 53l117 99l-29 35q-57 -51 -112 -52l-117 37q-104 33 -162 33q-84 0 -152 -80q-63 -72 -63 -160zM82 -162q0 -141 94.5 -229t237.5 -88q35 0 86 10v47 q-37 -4 -59.5 -7t-30.5 -3q-106 0 -185 72q-80 74 -80 180q0 102 72 168q70 57 176 57q150 0 314 -98q223 166 440 166h27q25 0 65 -2v47q-35 6 -90 6v522l-160 45l160 117v258q0 109 -47 178q-55 82 -160 82q-94 0 -182 -68l-225 -170v-839l-50 -37l29 -39l176 133v842 q59 41 93 63.5t44 26.5q27 12 64 12q98 0 98 -131v-371l-192 -145v387h-47v-887q-121 49 -242 50q-168 0 -293 -91q-133 -102 -133 -264zM133 588q0 -59 21 -121l51 25q-12 31 -12 49q0 35 22.5 61.5t54.5 26.5q23 0 47 -19v-360l-30 -27l30 -37l156 127v760l39 29l-29 39 l-166 -123v-256q-184 0 -184 -174zM797 125v135q72 23 102 23q29 0 90 -23v-115q-76 -14 -137 -49q-31 20 -55 29zM797 313v127q63 -18 98 -18q33 0 94 18v-127q-49 19 -90 19q-35 0 -102 -19zM797 492v90l153 114l39 -16v-188q-41 -23 -82 -23q-39 0 -110 23z" />
<glyph unicode="C" horiz-adv-x="1075" d="M78 602q0 -264 139 -444q150 -191 412 -191q311 0 493 295l-37 25q-90 -129 -213 -170v1011q31 14 103 80l49.5 49.5t48.5 47.5l-31 36q-95 -79 -128 -79h-1q-57 0 -114 104l-490 -489l35 -33l125 123v-623l-57 -57l32 -35l181 178v698l63 58q59 -47 137 -58v-1022 q-49 -6 -80 -6q-244 0 -376 176q-117 156 -117 412q0 360 276 637l-34 41q-201 -180 -297 -338q-119 -193 -119 -426z" />
<glyph unicode="D" horiz-adv-x="1236" d="M10 -162q0 -141 96 -231q95 -86 238 -86q90 0 182 41l-18 43q-78 -37 -156 -37q-115 0 -196 67q-88 74 -88 187q0 111 92 176q82 55 198 55q137 0 277 -104q195 176 430 176q6 0 24.5 -1t51.5 -3v53h-66v795q0 168 -61 270q-78 127 -232 127q-47 0 -104 -12l-383 -78 q-25 -4 -49.5 -7t-48.5 -3q-82 0 -121 88l-41 -21q33 -84 98 -143q72 -63 160 -64q59 0 254 50v-983q-66 4 -101.5 6t-39.5 2q-154 0 -273 -107q-123 -104 -123 -256zM125 588q0 -51 20 -121l52 12q-10 31 -11 53q0 96 80 97q23 0 47 -19v-344l-30 -22l30 -37l156 125v725 l29 22l-29 37l-156 -125v-227q-188 0 -188 -176zM594 178v242q88 45 162 45q76 0 164 -45v-262q-35 -8 -71 -21t-71 -33q-90 57 -184 74zM594 467v391q76 -45 162 -45q88 0 164 45v-391q-70 45 -164 45q-92 0 -162 -45zM594 913v271q78 14 117 20l39 6q170 0 170 -215v-82 q-84 -53 -164 -53q-74 0 -162 53z" />
<glyph unicode="E" horiz-adv-x="1191" d="M-70 1126q0 -92 99 -190l32 35q-75 62 -75 143q0 43 24.5 73t65.5 30q37 0 117 -29q74 -27 116 -27q57 0 135 56q4 2 33 25.5t86 70.5l-28 33q-59 -51 -113 -52l-150 47q-80 25 -129 25q-86 0 -149 -80q-64 -72 -64 -160zM94 -162q0 -141 109 -231q103 -84 248 -84 q82 0 167 41l-18 45q-76 -39 -154 -39q-119 0 -204 74q-92 76 -92 194q0 133 110 211q100 74 238 74q213 0 376 -172l197 194l-33 35l-55 -53q-53 45 -131 86v412l164 163l-33 33l-53 -49l-166 164l-164 -164v397q90 72 143 72q78 0 220 -154l180 179l-33 37l-39 -37 q-88 100 -207 100q-59 0 -108 -25q-135 -92 -203 -147v-932q-188 -23 -313 -129q-145 -121 -146 -295zM127 594q0 -61 20 -125l52 18q-12 27 -13 52q0 37 22.5 63.5t59.5 26.5q23 0 45 -17v-331l-30 -27l30 -37l156 125v754l31 24l-31 37l-156 -127v-258q-186 0 -186 -178z M600 266v439l70 67l133 -131v-410q-92 35 -203 35z" />
<glyph unicode="F" horiz-adv-x="1171" d="M-166 -80q0 -170 107 -282q104 -115 274 -115q35 0 80 10v43q-39 -8 -78 -8q-139 0 -233 98q-96 96 -97 236q0 96 45 166q55 86 142 86q45 0 172 -95q131 -94 198 -94q86 0 183 68q39 33 76.5 63.5t76.5 63.5v438h105v-934l-90 -72l55 -69l102 86l-20 29v976l172 138 h-172v403q29 -4 43 -6l14 -2q72 0 254 156l-29 38q-103 -79 -144 -79h-1q-59 0 -117 104l-327 -268v-987q-31 -37 -70 -37q-31 0 -174 121q-140 122 -234 122h-2q-139 0 -227 -135q-84 -125 -84 -262zM74 1126q0 -96 100 -190l35 33q-80 63 -80 147q0 41 25.5 71t66.5 30 q33 0 113 -29q82 -29 121 -29q59 0 137 58q4 4 32.5 27.5t86.5 68.5l-29 33q-63 -51 -115 -52q-8 0 -125 39q-98 33 -151 33q-86 0 -151.5 -78t-65.5 -162zM197 588q0 -57 20 -121l51 20q-12 31 -12 50q0 37 23.5 64.5t58.5 27.5q23 0 45 -19v-321l-29 -23l29 -39l156 127 v693l30 24l-30 37l-156 -125v-219q-186 0 -186 -176zM780 752v415l47 37q23 -20 58 -37v-415h-105z" />
<glyph unicode="G" horiz-adv-x="1294" d="M78 627q0 -276 166 -463q172 -197 442 -197q221 0 375 129q162 137 162 355q0 182 -119 282q-115 96 -297 96l338 500l-35 37q-94 -100 -156 -100q-53 0 -123 100l-425 -340l30 -43l58 43v-788l-50 -41l31 -37l174 141v295l66 98v-682q-162 0 -269 76q-92 63 -135 258 q-30 137 -30 301q0 254 57 389q70 166 258 291l-27 39q-221 -125 -350 -303q-141 -201 -141 -436zM649 680v477l56 45q82 -55 161 -55q57 0 144 67l-246 -364v133h-49v-203zM764 16v213q63 41 127 41h3q55 0 116 -32q-74 -188 -246 -222zM764 283v237q70 -39 137 -39 q63 0 139 39q2 -41 2 -63v-23q0 -47 -18 -151q-64 32 -119 32q-68 0 -141 -32zM764 578v200q33 4 48 5l15 1q178 0 207 -206q-65 -50 -143 -50q-76 0 -127 50z" />
<glyph unicode="H" horiz-adv-x="1298" d="M-20 -162q0 -141 100 -229q99 -86 242 -86q37 0 59 8v47q-27 -8 -62 -8q-117 0 -198 70q-88 70 -88 186q0 100 82 164q76 57 176 57q129 0 237 -98l203 198l-35 35l-47 -47v197q76 45 154 45q80 0 170 -45v-123l-111 -107l33 -36l43 36l160 -153l200 198l-32 35l-78 -73 l-60 61v942l103 102l-31 37l-51 -45l-160 160l-198 -199l32 -37l76 70l74 -70v-133q-78 -47 -146 -47q-72 0 -178 47v344h-47q-18 -63 -82 -63q-49 0 -155 43q-104 45 -158 45q-88 0 -157.5 -76t-69.5 -164q0 -117 104 -180l27 33q-78 55 -78 133q0 39 27.5 67.5t66.5 28.5 q45 0 145 -34q98 -33 150 -33q92 0 180 125v-1139q-125 63 -246 63q-152 0 -264 -100t-112 -252zM176 588q0 -53 23 -121l51 20q-12 25 -12 50q0 37 21.5 64.5t57.5 27.5q23 0 48 -19v-321l-31 -23l31 -37l155 125v723l29 23l-23 37l-161 -125v-248q-188 0 -189 -176z M649 381v215h324v-213q-84 39 -168 39q-80 0 -156 -41zM649 752v194q90 -39 174 -39q78 0 150 39v-194h-324z" />
<glyph unicode="I" horiz-adv-x="1005" d="M-188 -88q0 -168 116 -281q119 -114 283 -114q35 0 61 8v45l-67 -6q-139 0 -238 102q-100 100 -100 240q0 88 43 155q49 82 129 82q41 0 174 -90q131 -88 231 -88q90 0 179 60l211 151v1067l75 64l-28 36l-203 -163v-1051q-84 -68 -121 -68q-57 0 -202.5 121t-235.5 121 q-139 0 -228 -131q-80 -115 -79 -260zM127 1124q0 -96 98 -190l35 35q-80 63 -80 147q0 39 28 70t66 31q33 0 113 -29q82 -29 121 -29q59 0 137 53l117 99l-29 35q-57 -51 -115 -52q-84 25 -159 49q-70 20 -117 21q-84 0 -152 -80q-63 -72 -63 -160zM252 584q0 -53 18 -121 l54 20q-12 31 -13 49q0 35 22.5 64t59.5 29q20 0 45 -19v-403l-28 -23l28 -37l156 125v811l31 25l-31 37l-156 -127v-254q-186 0 -186 -176z" />
<glyph unicode="J" horiz-adv-x="956" d="M41 61q0 -139 104 -227q100 -80 244 -80q162 0 275 82q125 94 124 248v1159l70 57l-31 37l-194 -157v-1041q0 -321 -283 -321h-2q-252 0 -252 280q16 -78 90 -78q47 0 79 33t32 80t-32 81t-79 34q-72 0 -110 -62q-35 -53 -35 -125zM88 1126q0 -92 100 -190l35 33 q-80 68 -80 149q0 39 27 69t66 30q37 0 116 -29q74 -27 117 -27q68 0 139 53l117 99l-29 33q-66 -51 -114 -52q-12 0 -123 39q-92 33 -154 33q-86 0 -151.5 -78t-65.5 -162zM207 590q0 -57 20 -121l52 18q-12 25 -13 50q0 37 23.5 64.5t58.5 27.5q18 0 45 -17v-403l-31 -25 l31 -37l156 125v813l29 23l-29 37l-156 -125v-256q-186 0 -186 -174z" />
<glyph unicode="K" horiz-adv-x="1320" d="M25 1126q0 -92 100 -190l33 33q-78 66 -78 147q0 41 25.5 71t66.5 30q39 0 119 -29q78 -27 121 -27q61 0 133 53q29 23 57.5 47.5t56.5 47.5l-28 37q-59 -51 -113 -52q-12 0 -123 39q-92 33 -155 33q-84 0 -152 -80q-63 -72 -63 -160zM141 588q0 -47 21 -121l53 20 q-12 25 -12 50q0 92 80 92q23 0 47 -19v-368l-31 -25l31 -37l155 127v768l29 25l-29 39l-155 -127v-248q-188 0 -189 -176zM238 -389q88 -88 225 -88q20 0 42.5 2t51.5 6l-10 45q-57 -10 -74 -10q-104 0 -186 75.5t-82 180.5q0 98 84 164q76 55 178 55q123 0 231 -92 l203 196l-33 35l-51 -47v285l94 74q51 -18 78 -119q8 -29 18.5 -78t20.5 -121q18 -129 33 -160q14 -33 41 -65l194 196l-32 35l-41 -47q-39 51 -76 205q-37 150 -131 240l207 167l-207 256l-199 -155v211h-47v-248l-57 -47v440q63 55 114 55t107 -57q20 -23 40.5 -47.5 t41.5 -48.5l207 162l-37 43l-56 -43q-121 100 -208 100q-82 0 -152 -57l-213 -170v-850l-39 -33l29 -37l166 133v346l57 47v-612q-137 59 -240 60q-152 0 -264 -105q-116 -103 -116 -251q0 -138 88 -226zM817 479v307l84 66l150 -184z" />
<glyph unicode="L" horiz-adv-x="1167" d="M25 1126q0 -96 100 -190l33 33q-78 66 -78 147q0 41 25.5 71t66.5 30q37 0 117 -29q74 -27 117 -27q59 0 137 56q4 2 32.5 25.5t86.5 70.5l-31 33q-66 -49 -113 -50l-117 37q-104 33 -159 33q-86 0 -151.5 -78t-65.5 -162zM125 588q0 -49 22 -121l52 20q-12 25 -13 52 q0 37 22.5 63.5t57.5 26.5q23 0 47 -19v-319l-65 -53l28 -37l193 153v729l29 25l-29 37l-156 -125v-256q-188 0 -188 -176zM129 -168q0 -137 107 -225q102 -84 239 -84q82 0 162 37l-16 43q-92 -33 -162 -33q-106 0 -193 80q-84 80 -84 186q0 137 121 221q106 74 252 74 q258 0 434 -182l201 198l-35 35l-57 -59q-27 23 -53.5 41t-55.5 33v596l41 36l-57 62l-64 -62l33 -36v-576q-133 49 -266 49q-231 0 -389 -127t-158 -307zM492 330l30 -39l185 151v760q57 51 94 51q70 0 186 -161l184 180l-30 33l-47 -43q-102 104 -193 104q-74 0 -147 -61 l-203 -168v-760z" />
<glyph unicode="M" horiz-adv-x="1574" d="M-154 -139q0 -154 105 -248q96 -90 252 -90q113 0 198 49l-20 43q-72 -43 -178 -43q-121 0 -209 72q-94 76 -94 198q0 76 51 131.5t127 55.5q49 0 153 -37q104 -39 158 -39q117 0 184 88q61 82 62 201v356h156v-418l-105 -78l29 -39l76 56l178 -170l225 180l-31 39 l-76 -62v492h158v-383q0 -166 129 -266l201 201l-31 30l-69 -61q-47 27 -62 61q-12 27 -12 88v860l174 123l-29 39l-121 -82l-159 158l-179 -133v110h-47v-139l-94 -76q-35 184 -139 238l-172 -127v104h-49v-139q-59 -43 -104.5 -74.5t-75.5 -52.5q-70 -55 -70 -307 q-188 0 -189 -166q0 -57 25 -127l45 19q-10 31 -10 49q0 94 80 94q29 0 49 -21v-286l-80 -64l31 -37l205 166v678l94 68v-875q0 -147 -127 -147q-14 0 -137 37q-95 30 -152 30h-4q-141 0 -229 -94q-90 -96 -91 -233zM635 754v424l59 43q96 -31 97 -164v-303h-156zM946 225 v850l94 72v-1018zM1087 754v424l66 47l92 -97v-374h-158z" />
<glyph unicode="N" horiz-adv-x="1216" d="M-72 -164q0 -139 101 -227q98 -86 239 -86q27 0 70 6l-10 45q-37 -6 -60 -6q-111 0 -194 72q-84 74 -84 184q0 98 73 164q72 59 173 59q123 0 243 -92l201 197l-35 32l-72 -69q-86 61 -188 69v244q78 45 152 45q53 0 116 -22q70 -29 92 -68l103 -219q90 -184 231 -209 v1175q45 31 103 84l94 95l-35 32q-73 -81 -99 -81h-1q-55 0 -125 106l-240 -240l33 -34l102 100q47 -66 121 -66v-223q-78 -45 -166 -45q-119 0 -192 62l-111 219q-29 57 -53.5 96t-46.5 61q-68 70 -166 70q-104 0 -191 -96q-35 -41 -62.5 -89t-43.5 -106l43 -16 q61 145 178 145q53 0 117 -35v-403q-188 0 -188 -168q0 -55 24 -129l45 23q-10 25 -10 47q0 94 82 94q29 0 47 -25v-424q-164 0 -283 -90q-127 -96 -127 -258zM385 479v647q27 -27 35 -45l280 -602q-71 39 -161 39q-84 0 -154 -39zM705 842q76 -31 157 -31q92 0 170 37v-643 q-45 27 -71 88z" />
<glyph unicode="O" horiz-adv-x="1337" d="M78 621q0 -258 162 -451q172 -203 426 -203q270 0 432 223.5t162 507.5q0 430 -363 668l-129 -92v72h-49v-107l-336 -246l29 -37l80 60v-778l-50 -41l29 -37l176 141v823l72 52v-1160q-31 -2 -49 -2h-21q-368 0 -368 622q0 266 51 388q31 80 108 158q35 35 68 67.5 t65 67.5l-24 29q-471 -283 -471 -725zM768 20v416q74 35 143 35q96 0 168 -47q-72 -356 -311 -404zM768 483v361q63 -33 135 -33q80 0 158 33q37 -133 37 -213q0 -8 -3 -46t-8 -110q-81 41 -161 41q-78 0 -158 -33zM768 895v319q106 -74 166 -141q63 -74 117 -182 q-68 -31 -140 -31q-74 0 -143 35z" />
<glyph unicode="P" horiz-adv-x="1212" d="M0 1012l45 -11q39 180 158 181q111 0 110 -160v-254q-188 0 -188 -166q0 -59 27 -127l45 12q-10 31 -11 52q0 39 22.5 68.5t59.5 29.5q23 0 45 -23v-376q-250 -109 -288 -340l45 -11q53 154 243 211v-471l-80 -67l31 -37l174 139l137 -139l35 37v493q76 -47 127 -98 q125 180 297 180q47 0 109 -22l16 47q-51 20 -102 24v928l131 98l-29 39l-72 -53l-169 168l-308 -221v196h-47v-227l-94 -70q0 322 -209 322q-123 0 -197 -121q-63 -100 -63 -231zM469 -303v1280l94 72v-1446zM610 248v184q76 37 142 37q63 0 149 -37v-270 q-16 -8 -30.5 -16.5t-24.5 -16.5q-84 78 -236 119zM610 485v355q68 -29 144 -29q74 0 147 29v-355q-75 29 -149 29t-142 -29zM610 893v190l193 142l98 -99v-237q-65 -33 -143 -33q-80 0 -148 37z" />
<glyph unicode="Q" horiz-adv-x="1337" d="M78 621q0 -262 164 -455q176 -201 432 -201q29 0 71 6q55 -72 89 -104q47 -47 122 -47q72 0 131 45q61 45 89 108l-43 23q-41 -80 -105 -80q-45 0 -131 104q365 223 365 689q0 412 -361 655l-137 -94v78h-49v-113l-328 -244l29 -39l76 54v-764l-50 -43l31 -37l178 143 v819l64 47v-907l-168 -143l31 -37l45 37l90 -107q-27 -2 -41 -2h-19q-154 0 -264 148q-108 151 -108 477v6q0 240 53 381q63 166 244 291l-27 41q-211 -119 -338 -305q-135 -201 -135 -430zM764 201v233q61 37 141 37q102 0 170 -49q-43 -262 -211 -356zM764 485v361 q70 -31 147 -31q59 0 150 31q33 -119 33 -256q0 -59 -11 -117q-88 45 -176 45q-80 0 -143 -33zM764 893v330q207 -127 283 -330q-76 -29 -142 -29q-68 0 -141 29z" />
<glyph unicode="R" horiz-adv-x="1189" d="M25 1006h43q37 176 159 176q113 0 113 -162v-256q-188 0 -188 -168q0 -57 24 -131l47 27q-12 27 -12 47q0 37 22.5 65.5t59.5 28.5q27 -1 47 -21v-432q-115 -27 -199 -129q-82 -96 -82 -217t86 -215q90 -96 209 -96q6 0 35 2t82 6l-10 49q-41 -4 -61.5 -7t-16.5 -3 q-106 0 -188 74q-80 70 -80 176t82 168q76 53 184 53q127 0 223 -92l213 196l-33 35l-77 -74q-16 14 -34 27.5l-38 28.5v434l98 72q76 -76 94 -172l72 -349q16 -80 47 -118q27 -35 96 -80l195 180l-33 33l-71 -66q-45 27 -62 54q-23 70 -29 110q-20 123 -43.5 211t-50.5 145 q-35 72 -114 121q158 123 206 176q55 61 56 168q0 141 -156 285l-305 -221v196h-47v-231l-92 -66q0 127 -41 213q-59 109 -172 109q-217 0 -258 -360zM496 190v793l92 66v-869q-57 10 -92 10zM635 659v426l180 132q74 -72 92 -97q45 -58 45 -121q0 -113 -110 -192z" />
<glyph unicode="S" horiz-adv-x="1234" d="M-195 -156q0 -72 37 -116q39 -49 111 -50q78 0 166 113l278 350q135 -47 310 -192l270 207q186 143 186 344q0 221 -233 311l166 209l-37 29l-178 -224q-8 4 -12.5 5t-8.5 4l-362 127q-156 55 -156 169q0 63 47 107.5t113 44.5q43 0 78 -12q59 -23 114 -99 q14 -20 34.5 -54t47.5 -81l213 172l-31 39l-51 -39q-102 158 -299 158q-133 0 -237 -80q-113 -86 -113 -215q0 -164 127 -235q127 -68 391 -142l-51 -63q-129 35 -223 72.5t-160 76.5q-131 76 -131 238q0 4 1 27.5t3 66.5h-45q-27 -94 -27 -188q0 -197 117 -279 q123 -84 356 -151l-167 -211q-47 6 -78 6q-260 0 -379 -129q-186 -195 -187 -316zM-145 -156q0 131 139 230q125 92 264 92q43 0 90 -10l-287 -357q-58 -73 -109 -73h-1q-96 0 -96 118zM504 272l162 205q35 -10 68.5 -22.5t68.5 -22.5q92 -37 92 -84t-86 -117l31 -34 q41 39 66.5 64.5l35.5 35.5q53 63 53 125q0 88 -69 133q-20 12 -57.5 27.5t-92.5 31.5l51 62q242 -80 242 -248q0 -98 -53 -158q-59 -55 -106.5 -94.5t-82.5 -66.5q-166 131 -323 163z" />
<glyph unicode="T" horiz-adv-x="1099" d="M23 1026q0 -119 106 -182l23 43q-72 53 -72 129q0 102 90 174q82 63 190 63q137 0 328 -90l-289 -286l37 -33l74 74v-572l-57 -43l24 -39l189 135v678l69 66l137 -66v-958q-41 -12 -81 -13q-229 0 -373 160q-139 156 -139 387q0 250 198 449l-41 41q-164 -141 -231 -260 q-90 -152 -90 -334q0 -240 149 -408q155 -174 393 -174q301 0 492 297l-37 27q-135 -135 -192 -156v942l229 228l-37 32l-111 -104q-260 133 -522 133q-190 0 -321 -98q-135 -102 -135 -242z" />
<glyph unicode="U" horiz-adv-x="1253" d="M-45 -170q0 -143 90 -227q88 -80 238 -80v47q-106 0 -187 68q-84 72 -84 176q0 109 80 180q76 63 189 63q150 0 270 -116l375 307q0 -201 129 -299l198 196l-34 33l-66 -65q-72 35 -72 157v846l119 92l-31 41l-57 -41l-162 158l-217 -158l27 -41l76 56l90 -88v-244 q-80 -35 -152 -35q-66 0 -135 35v450h-47v-1196q-20 10 -44 18.5t-50 14.5v866q0 55 -3 94.5t-8 61.5q-20 76 -88 127q-51 39 -110 39q-121 0 -195 -121q-61 -102 -61 -233l41 -11q16 72 51 117q43 59 106 60q111 0 111 -154v-256q-188 0 -188 -166q0 -57 26 -131l45 14 q-12 31 -12 52q0 39 23.5 68.5t60.5 29.5q25 0 45 -21v-413q-164 -18 -272 -111q-115 -102 -115 -260zM639 119v313q92 35 147 35q59 0 140 -35v-121l-254 -207q-8 4 -15.5 8.5t-17.5 6.5zM639 485v353q76 -29 143 -29q70 0 144 29v-353q-74 29 -142 29q-70 0 -145 -29z" />
<glyph unicode="V" horiz-adv-x="1245" d="M23 -166q0 -131 81 -219q82 -92 215 -92v47q-92 0 -165 74q-72 72 -72 163q0 102 90 168q82 57 188 58q150 0 252 -84q174 178 451 178q25 0 49.5 -3t48.5 -7l17 51q-55 12 -91 12v930l134 96l-29 41l-72 -49l-168 166l-309 -221v198h-49v-231l-92 -72q0 205 -111 289 q-51 39 -112 39q-109 0 -179 -129q-53 -96 -67 -225l43 -11q8 68 49 121q45 57 111 58q111 0 110 -158v-258q-188 0 -188 -168q0 -57 24 -127l47 18q-12 31 -12 50q0 96 82 96q25 0 47 -23v-420q-139 -35 -227 -122q-96 -97 -96 -234zM502 193v786l92 68v-881 q-35 10 -57.5 17t-34.5 10zM643 150v282q80 35 143 35q70 0 150 -35v-266q-123 -23 -199 -68q-35 23 -94 52zM643 487v351q70 -31 143 -31q66 0 150 31v-351q-80 27 -154 27q-72 0 -139 -27zM643 891v190l197 144l96 -101v-233q-74 -35 -150 -35q-80 0 -143 35z" />
<glyph unicode="W" horiz-adv-x="1585" d="M-25 -186q0 -135 95 -211q82 -68 225 -80v47q-109 8 -182 63q-82 61 -82 168q0 109 96 181q88 63 201 63q143 0 243 -96l220 155l155 -155q205 180 440 180q47 0 115 -12l12 47q-47 18 -92 18v926l164 164l-35 35l-102 -101l-156 160l-182 -182v157h-49v-206l-94 -93 q2 29 2 45v21q0 154 -131 258l-183 -182v157h-49v-206l-92 -93q0 129 -49 238q-41 86 -162 86t-176 -102q-53 -104 -84 -254h41q39 174 158 174q117 0 116 -156v-258q-188 0 -188 -168q0 -57 25 -131l47 10q-12 33 -13 54q0 37 23.5 67.5t58.5 30.5q25 0 47 -23v-428 q-104 -16 -180 -49q-90 -41 -145 -133q-58 -90 -58 -186zM514 182v791l92 94v-917q-47 23 -92 32zM655 127v354q39 18 80 19q39 0 76 -19v-299l-115 -86zM655 528v256q20 -4 40 -7t42 -3q37 0 74 10v-256q-37 15 -80 15q-41 0 -76 -15zM655 836v280l82 82q74 -53 74 -156 v-206q-31 -15 -76 -15q-53 0 -80 15zM967 182v793l94 92v-981zM1110 117v364q59 16 80 17q20 0 76 -17v-311q-76 -14 -156 -53zM1110 528v256l82 -12q2 -1 7 -1q18 0 67 13v-256q-31 15 -74 15q-51 0 -82 -15zM1110 836v280l88 88l68 -69v-299q-43 -17 -78 -17t-78 17z" />
<glyph unicode="X" horiz-adv-x="1161" d="M12 1057h45q0 157 127 157h2q88 0 138 -108l168 -363h-211q-33 0 -45 -26l-93 -217l45 -19l48 107h311l-189 -445q-50 45 -120 45q-72 0 -121 -65q-6 -8 -23.5 -40t-46.5 -87l45 -27q14 27 31 49q20 27 49 27q51 0 152 -96l260 600l184 -389q72 -154 184 -211l199 194 l-37 33l-76 -76q-88 18 -155 168l-146 320h236q31 0 45 33l96 221l-45 18l-51 -117h-352l172 404q76 -43 141 -43q66 0 96 33q25 25 76 180l-37 18q-46 -71 -81 -71h-1q-78 0 -149 102l-246 -567l-178 381q-43 94 -80 131q-53 55 -139 55q-106 0 -170 -104q-57 -90 -58 -205 z" />
<glyph unicode="Y" horiz-adv-x="1255" d="M12 1010l43 -9q31 180 160 181q109 0 109 -162v-252q-188 0 -189 -164q0 -55 25 -131l47 12q-12 25 -12 52q0 98 81 98q27 0 48 -21v-475l223 -137q-55 -20 -95 -40.5t-67 -41.5q-74 -59 -74 -153q0 -80 51.5 -132.5t129.5 -52.5q76 0 135 43l194 139q45 33 86 33 q37 0 63.5 -30.5t26.5 -69.5q0 -53 -38.5 -90t-92.5 -37q-51 0 -104 27l-19 -41q63 -33 123 -33q80 0 133.5 55t53.5 135q0 88 -55.5 141.5t-143.5 53.5q-72 0 -217 -88q-143 -88 -154 -88q-33 0 -54 26.5t-21 59.5q0 80 157 139l363 135q74 29 105.5 79t31.5 136v805 l129 96l-29 39l-69 -51l-168 170l-307 -221v194h-48v-227l-94 -70q0 125 -43 209q-51 106 -168 107q-100 0 -178 -102.5t-78 -245.5zM479 100v881l94 70v-1010zM621 33v401q74 35 135 35t153 -35v-194q0 -104 -112 -144zM621 483v355q92 -29 155 -29q72 0 133 29v-357 q-77 33 -143 33q-59 0 -145 -31zM621 889v196l192 140l96 -97v-239q-65 -35 -141 -35q-78 0 -147 35z" />
<glyph unicode="Z" horiz-adv-x="1071" d="M12 -14l27 -37q219 121 432 121t399 -121l168 252l-37 28l-55 -86q-117 80 -264 80q-193 0 -524 -164q225 170 282 256q53 92 93 161t65 116h254q41 0 59 41l90 205l-45 20l-45 -110h-239q4 4 5 8t3 6l92 190q100 205 287 336l-21 53q-197 -124 -404 -124h-3 q-217 0 -342 149l-170 -252l39 -27l53 80q123 -92 260 -92q127 0 371 107q-66 -51 -116 -99.5t-89 -95.5q-82 -98 -152 -239h-260q-51 0 -67 -41l-82 -201l43 -19l39 105h254q-175 -381 -400 -606z" />
<glyph unicode="[" horiz-adv-x="544" d="M174 -442h301v71h-145v1725h155v71h-311v-1867z" />
<glyph unicode="\" horiz-adv-x="468" d="M37 66l31 -37l73 61l115 -113l186 156l-30 37l-62 -51l-51 47v956l43 37q74 -78 119 -78q47 0 104 54q4 4 82 94l-33 35q-57 -70 -82 -70q-43 0 -112 147q-102 -201 -332 -282l18 -43l50 18v-868z" />
<glyph unicode="]" horiz-adv-x="544" d="M59 -371v-71h312v1867h-301v-69h145v-1727h-156z" />
<glyph unicode="^" horiz-adv-x="1024" d="M-49 586h201l428 641l417 -641h76l-545 848h-14z" />
<glyph unicode="_" horiz-adv-x="1024" d="M-25 -178v-86h1074v86h-1074z" />
<glyph unicode="`" horiz-adv-x="1024" d="M279 1108q20 -109 110 -172q88 -62 199 -62h8t25 3v49q-6 -2 -19 -2q-57 0 -102 51q-47 53 -47 108l3 19q3 20 9 59z" />
<glyph unicode="a" horiz-adv-x="749" d="M47 156q0 -139 178 -179l217 187q0 -102 78 -187l193 154l-31 37l-57 -47q-39 53 -39 143v330l108 88l-30 37l-70 -53l-113 112q-94 -139 -274 -186l-10 12q79 8 79 82q0 39 -25.5 62.5t-60.5 23.5q-88 0 -88 -88q0 -57 162 -225l-125 -117q-92 -86 -92 -186zM164 246 q0 45 49 98q20 20 40.5 38.5t41.5 39.5l53 -60l37 33l-141 158q86 25 155 70l43 -39v-357l-135 -116q-25 0 -50.5 11t-46 30.5t-33.5 44t-13 49.5z" />
<glyph unicode="b" horiz-adv-x="784" d="M25 68l26 -33l62 47l157 -105q100 76 195 107q92 29 221 29v47l-47 2v448l98 80l-30 37l-66 -53l-149 104l-222 -178v463q0 135 66 219l-35 23q-86 -82 -127 -193l-24 135l-44 -12q20 -84 21 -160v-915zM270 178v361l142 112l84 -61v-438q-72 -18 -119 -46z" />
<glyph unicode="c" horiz-adv-x="628" d="M49 66l31 -39l72 57l147 -107l309 207l-26 39l-176 -117l-109 76v443l43 14q43 -68 53 -82q37 -43 80 -43q80 0 178 168l-39 29q-45 -76 -77 -76q-37 0 -89 143q-115 -133 -385 -133v-47q27 -2 41 -3l13 -1h8q10 0 31 2v-440z" />
<glyph unicode="d" horiz-adv-x="786" d="M49 66l33 -35l51 47l158 -101q164 133 420 134v47h-56v442l84 78l-28 37l-64 -58l-416 463l64 58l-33 34l-170 -151l322 -359q-121 -57 -246 -57h-23q-18 0 -53 2v-47l55 -2v-444zM291 176v432q98 23 160 51l61 -57v-455l-115 -38z" />
<glyph unicode="e" horiz-adv-x="634" d="M47 70l31 -39l49 47l164 -101l303 199l-27 41l-182 -123l-94 58v114l364 242l-217 270q-158 -133 -383 -133v-47q27 -2 39 -3l12 -1h11q10 0 30 2v-434zM291 322v303l55 18l150 -182z" />
<glyph unicode="f" horiz-adv-x="468" d="M0 602l43 -20l35 73h78v-489l-119 -100l31 -37l73 61l115 -113l186 156l-30 37l-62 -51l-51 47v489q84 0 78 -2q41 4 57 41l58 123l-43 21l-29 -60h-121v344q20 14 43 37q78 -78 119 -78q47 0 104 54q20 23 41 47t41 47l-33 35q-57 -70 -82 -70q-39 0 -112 147 q-102 -201 -332 -282l18 -43l50 18v-256q-51 0 -60 -4q-23 -6 -37 -43z" />
<glyph unicode="g" horiz-adv-x="794" d="M25 -383l30 -31q76 59 127 60q109 0 211 -133l223 155q141 98 142 250q0 123 -103 197v477l101 100l-35 33l-59 -59l-154 112q-150 -137 -416 -137v-47l51 -2v-428l-100 -101l33 -34l67 67l226 -102zM184 -281l328 357l-4 -53q135 -54 135 -185q0 -72 -45 -119 q-25 -29 -104 -79q-83 108 -201 108h-2q-55 0 -107 -29zM285 604q39 8 74.5 20.5t70.5 32.5l82 -59v-451l-43 -45l-182 84z" />
<glyph unicode="h" horiz-adv-x="821" d="M49 68l31 -37l65 57l115 -108l168 141l-33 37l-43 -37l-47 45v332l166 143l51 -47v-524q-63 -70 -63 -146q0 -45 53 -135t53 -113q0 -49 -88 -122l29 -35q45 35 73.5 60.5t45.5 41.5q65 71 65 135q0 45 -75.5 133t-75.5 111q0 33 36 55q29 20 68 21q31 0 68 -19l20 39 q-37 20 -65 23v483l108 94l-31 35l-65 -55l-113 108l-260 -223v506q0 80 10 117q8 20 22.5 45.5t37.5 56.5l-33 21q-90 -84 -127 -193q-10 53 -17.5 87t-11.5 50l-39 -12q8 -63 11.5 -100t3.5 -49v-924z" />
<glyph unicode="i" horiz-adv-x="440" d="M-8 616l28 -36l64 55l55 -47v-393q0 -152 90 -218l185 160l-31 37l-53 -47q-47 35 -47 131v340l102 92l-31 35l-63 -51l-115 104zM14 993l31 -37l43 37l117 -104l162 143l-31 37l-41 -35l-115 103z" />
<glyph unicode="j" horiz-adv-x="417" d="M12 618l31 -34l59 51l45 -39v-573q143 -37 144 -179q0 -43 -72 -149q-69 -107 -69 -156v-4q0 -6 2 -16h43q0 55 104 182q106 125 107 221q0 133 -115 195v479l112 98l-30 37l-64 -55l-114 102zM39 1006l33 -37l43 37l116 -105l162 143l-33 37l-41 -34l-114 102z" />
<glyph unicode="k" horiz-adv-x="763" d="M23 68l30 -37l70 59l115 -113l170 142l-31 37l-43 -39l-53 51v121l106 73q57 -45 100 -190q45 -147 93 -195l182 152l-31 37l-45 -39q-41 29 -90 154q-45 117 -111 151l177 121l-177 225l-204 -145v436q0 137 55 209l-29 27q-90 -78 -123 -191l-24 137l-41 -12 q18 -96 18 -156v-919zM281 348v225l116 86l117 -147z" />
<glyph unicode="l" horiz-adv-x="432" d="M25 70l32 -39l70 57l117 -111l188 164l-33 35l-67 -61l-47 45v907q0 121 67 211l-33 27q-100 -106 -129 -201q-4 25 -10 59.5t-16 79.5l-45 -14q23 -90 22 -148v-913z" />
<glyph unicode="m" horiz-adv-x="1144" d="M25 608l30 -37l58 52q43 -47 43 -134v-327l-117 -105l33 -34l65 57l119 -107l158 140l-33 37l-41 -39l-41 36v338l160 140q45 -45 45 -136v-344l-49 -36l151 -136l168 144l-35 35l-49 -41l-43 34v342l174 144l31 -29v-412q0 -166 88 -217l180 146l-28 41l-50 -41 q-47 29 -47 137v324l125 108l-30 37l-64 -55l-113 104l-266 -223q0 156 -90 223l-260 -227q0 82 -12 123q-18 51 -72 104z" />
<glyph unicode="n" horiz-adv-x="808" d="M25 618l30 -36l62 53q37 -37 37 -141v-336l-109 -90l31 -37l67 55l115 -109l166 142l-31 37l-53 -43l-43 43v329l172 150l49 -41v-395q0 -147 84 -222l182 156l-30 37l-56 -47q-36 36 -36 134v5v340l106 90l-31 37l-63 -53l-113 102l-264 -229q0 86 -10 127 q-16 57 -74 102z" />
<glyph unicode="o" horiz-adv-x="804" d="M49 72l33 -37l57 51l154 -109q170 133 414 134v47h-50v444l101 90l-31 37l-65 -57l-146 106q-92 -84 -197 -110q-84 -25 -221 -25v-47h52v-436zM293 184v420q70 14 133 47l88 -63v-443q-35 -8 -63.5 -18t-51.5 -21z" />
<glyph unicode="p" horiz-adv-x="802" d="M12 614l31 -34l53 47q47 -53 47 -142v-325l-102 -90l33 -37l69 61v-438l-106 -96l31 -35l219 196v349q39 -25 70.5 -47.5t60.5 -42.5q33 37 62.5 62.5t61 40.5t70.5 22.5t90 7.5v47q-12 2 -18 2h-6h-6t-19 -2v434l103 90l-33 35l-61 -53l-156 112l-219 -196q0 61 -25 108 q-8 14 -24.5 37t-42.5 51zM287 205v313l141 125l82 -59v-457q-12 -4 -27 -18q-61 98 -176 98h-6q-4 0 -14 -2z" />
<glyph unicode="q" horiz-adv-x="796" d="M47 59l31 -34l61 55l164 -100l215 163v-483l-110 -100l30 -35l228 203v858l106 96l-33 35l-59 -51l-150 112q-127 -139 -346 -139h-26q-20 0 -60 2v-49l56 -2v-434zM297 158v442q86 18 147 49l78 -59v-381l-137 -107z" />
<glyph unicode="r" horiz-adv-x="610" d="M12 614l31 -36l59 49q43 -49 43 -142v-321l-104 -94l31 -35l57 53l160 -111l211 146l-29 39l-88 -62l-94 66v371l51 69q68 -74 123 -74q45 0 92 50l66 90l-39 28q-6 -8 -12.5 -16t-12.5 -16q-14 -20 -29 -21q-29 0 -120 131l-119 -162q-10 74 -86 162z" />
<glyph unicode="s" horiz-adv-x="733" d="M47 594h51v-252h211l-248 -340l37 -25q45 63 111 64q70 0 153 -61q133 133 322 133v47h-53v262h-207l240 328l-39 28q-53 -61 -115 -61q-63 0 -160 59q-135 -135 -303 -135v-47zM184 96l183 246h116v-217l-24 -10q-66 37 -113 37q-62 -1 -162 -56zM242 422v207l32 20 q57 -45 123 -45q74 0 140 51l-172 -233h-123z" />
<glyph unicode="t" horiz-adv-x="481" d="M2 604l43 -18l31 71h84v-491l-115 -96l31 -37l65 55l121 -111l187 156l-31 37l-72 -61l-43 41v507h55q68 0 91 54l45 112l-43 19l-29 -64h-119v330l86 76l-31 37l-198 -168v-275h-45q-41 0 -70 -65z" />
<glyph unicode="u" horiz-adv-x="794" d="M12 618l31 -34l55 47q37 -41 37 -139v-340l-106 -91l30 -36l64 53l113 -101l264 226q0 -86 12 -125q14 -55 70 -101l190 158l-31 37l-63 -53q-35 35 -35 141v336l109 90l-31 37l-70 -55l-112 110l-166 -145l30 -35l54 43l43 -43v-330l-172 -149l-49 41v393q0 147 -84 225 z" />
<glyph unicode="v" horiz-adv-x="780" d="M139 596v-428l-102 -94l31 -35l59 51l158 -113q135 137 344 138h24t49 -2v49q-14 2 -22 2h-6h-6t-19 -2v428l107 96l-33 35l-70 -62l-123 119l-168 -151l33 -37l45 43l66 -64v-419q-102 -31 -135 -50l-88 66v565q-172 0 -172 107q0 59 88 98l-15 45q-161 -49 -161 -213 q0 -117 116 -172z" />
<glyph unicode="w" horiz-adv-x="1103" d="M47 66l31 -35l65 57l121 -111l213 134l148 -134q143 139 340 140h20t43 -2l-2 47l-24 3l-9 1h-6t-18 -2v424l110 94l-30 37l-80 -66l-135 125l-172 -151l30 -35l58 49l84 -82v-409q-57 -12 -119 -48l-90 86v369q0 152 -88 221l-187 -160l33 -36l53 47q45 -43 45 -137 v-324l-110 -70l-88 82v455q-94 76 -95 172q0 170 293 291l-10 41q-184 -72 -291 -166q-112 -99 -112 -259q0 -122 75 -192v-372z" />
<glyph unicode="x" horiz-adv-x="772" d="M0 55l37 -24q31 55 51 55q51 0 131 -115l150 303q16 -45 33.5 -88t33.5 -88q53 -106 123 -127l182 154l-28 39l-78 -66q-37 16 -57 49q-14 23 -31 70l-90 238l63 131q49 -37 88 -37q47 0 90 49l62 92l-35 23q-35 -49 -57 -49q-31 0 -109 108l-127 -256q-33 88 -52.5 137 t-27.5 64q-18 31 -71 55l-195 -164l31 -37l88 74q27 -14 39 -43q2 -4 7 -17.5t15 -35.5l80 -211l-84 -172q-10 8 -22.5 14t-22.5 15q-27 14 -51 14q-55 0 -88 -37q-27 -39 -46.5 -68t-31.5 -49z" />
<glyph unicode="y" horiz-adv-x="776" d="M12 616l31 -36l53 47q31 -47 37 -68q6 -23 6 -76v-391l176 -76q-88 -35 -135 -65q-53 -35 -53 -123q0 -70 43 -110t113 -40q47 0 143 39q100 37 133 37q55 0 55 -49q0 -57 -77 -98q-63 -33 -131 -33q-60 0 -152 35l-21 -43q88 -43 166 -43q106 0 193 55q98 61 98 164 q0 68 -48 110t-116 42q-2 0 -225 -62q-14 -4 -27.5 -8t-25.5 -8q-49 0 -49 51q0 49 67 78l271 106q78 31 92 51.5t14 128.5v357l115 98l-33 37l-63 -57l-125 112l-166 -147l30 -35l52 45l47 -49v-447q0 -49 -41 -73q-12 -6 -86 -31l-90 39v493q0 102 -86 205z" />
<glyph unicode="z" horiz-adv-x="610" d="M25 31l41 -31q61 68 174 68q102 0 223 -91l123 175l-39 26l-33 -47q-84 47 -158 47q-98 0 -229 -82l178 242q135 0 158 12q18 10 88 117l-39 29l-43 -62h-94l211 297l-37 29q-59 -59 -164 -60q-111 0 -201 78l-143 -205l39 -26l43 63q70 -39 137 -39q94 0 203 76 l-148 -213h-118q-39 0 -131 -141l38 -27l52 72h90z" />
<glyph unicode="{" horiz-adv-x="940" d="M168 498q117 0 158 -37q45 -39 45 -156v-405q0 -231 82 -286.5t323 -55.5v71q-135 0 -192 47q-57 51 -58 187v350q0 135 -27.5 211t-125.5 96q94 20 129 88q25 49 24 156v340q0 152 64 203q31 29 69 39q25 8 117 8v71q-225 -2 -291 -32q-115 -53 -114 -246v-348 q0 -106 -6 -158q-6 -53 -80 -80q-56 -18 -117 -18v-45z" />
<glyph unicode="|" horiz-adv-x="1024" d="M459 -340h108v1704h-108v-1704z" />
<glyph unicode="}" horiz-adv-x="940" d="M164 -371v-71q115 2 186.5 10t104.5 22q115 53 114 246v346q0 127 6 162q6 43 58.5 69.5t138.5 26.5v45q-115 0 -158 37q-45 39 -45 154v407q0 246 -73 293q-74 49 -303 49h-29v-71q141 0 192 -45q57 -49 58 -189v-352q0 -135 26 -207q27 -76 127 -98q-92 -20 -127 -90 q-27 -51 -26 -156v-338q0 -141 -54.5 -195.5t-195.5 -54.5z" />
<glyph unicode="~" horiz-adv-x="1024" d="M76 573l61 -43q125 115 150 115q14 0 108 -41q57 -23 88 -36t35 -15q33 -12 86 -12q98 0 156 41q57 49 99 87t69 64l-60 43q-115 -115 -147 -114q-57 0 -162 51q-106 53 -160 53q-96 0 -180 -64q-12 -8 -143 -129z" />
<glyph unicode="&#xa1;" horiz-adv-x="485" d="M31 610l30 -37l68 56l117 -107l190 160l-30 37l-60 -49l-117 108zM35 -412l31 -37q27 27 63 27q61 0 115 -80l200 168l-30 37l-56 -45q-28 21 -53 31l-49 753l-51 -30l-64 -746q-45 -20 -106 -78z" />
<glyph unicode="&#xa2;" d="M117 246l30 -39l72 57l189 -139l61 41v-186h45v217l203 137l-27 39l-176 -117v442q14 -2 22 -3l7 -1q78 0 176 166l-39 29q-47 -74 -78 -74q-29 0 -55 57q-8 20 -16.5 41t-16.5 43v179h-45v-220q-80 -57 -164 -75q-59 -14 -176 -15v-49l92 -2v-438zM365 360v443l43 16 q37 -59 61 -90v-442z" />
<glyph unicode="&#xa3;" horiz-adv-x="911" d="M63 528h170q60 -166 60 -211q0 -49 -41 -102l-78 -78l35 -33q211 156 211 310q0 6 -5 34.5t-16 79.5h203v47h-213l-92 250q-35 98 -35 133q0 66 46 107t112 41q86 0 174 -78q70 -63 115 -154l202 203l-34 35l-58 -59q-121 145 -284 145q-160 0 -271 -111 q-109 -113 -108 -270q0 -76 59 -242h-152v-47zM141 -150q0 -4 1 -16.5t3 -30.5h45q0 117 64.5 187.5t181.5 70.5q170 0 271 -112l200 198l-35 33l-71 -71q-127 80 -264 79q-160 0 -279 -106q-117 -109 -117 -232z" />
<glyph unicode="&#xa4;" d="M4 903l133 -135q-72 -121 -71 -221q-1 -109 75 -211l-133 -133l51 -53l136 135q106 -74 213 -74q104 0 219 76l135 -137l51 53l-137 137q74 106 74 213q0 98 -72 213l137 137l-51 51l-137 -135q-119 76 -217 76q-119 0 -220 -76l-135 135zM164 553q0 102 72 174t174 72 t173.5 -72t71.5 -174t-71.5 -174t-173.5 -72t-174 72t-72 174z" />
<glyph unicode="&#xa5;" d="M2 1034l29 -39l88 74q47 -23 67 -94l76 -256h-166v-53h183l32 -111h-209v-55h222v-332l-117 -98l33 -39l69 57l117 -111l188 164l-32 35l-68 -61l-47 45v340h248v55h-238l29 111h215v53h-201l74 272q29 -29 74 -28q51 0 77 32q23 25 70 152l-35 20q-18 -47 -20 -49 q-16 -25 -43 -24q-59 0 -113 102l-149 -567l-140 403q-14 37 -23 61.5t-18 34.5q-25 39 -77 68z" />
<glyph unicode="&#xa6;" horiz-adv-x="1024" d="M459 313v-653h108v653h-108zM459 680h108v684h-108v-684z" />
<glyph unicode="&#xa7;" horiz-adv-x="890" d="M49 526q0 -164 172 -237l320 -99q172 -61 172 -188q0 -55 -33 -115q-16 -27 -31.5 -52t-32.5 -52q-100 59 -208 59q-225 0 -302 -217l46 -33q47 133 180 134q66 0 131 -41q25 -18 104 -93l187 334q59 103 59 166q0 119 -86 193q82 135 84 141q43 82 43 154q0 109 -61 168 q-66 63 -234 110q-106 31 -170.5 52.5t-87.5 31.5q-121 59 -121 170q0 74 47 118t121 44q158 0 279 -225l202 204l-32 35l-66 -65q-113 143 -282 143q-145 0 -246 -88q-111 -96 -111 -234q0 -117 94 -208q-41 -66 -67.5 -114t-40.5 -77q-29 -61 -29 -119zM147 618 q0 43 76 187q55 -39 105 -53l250 -76q178 -54 178 -189q0 -51 -70 -176q-23 10 -39 18.5t-26 12.5q-29 8 -48 12l-245 76q-180 55 -181 188z" />
<glyph unicode="&#xa8;" horiz-adv-x="1024" d="M215 1024l31 -37l55 47l107 -106l106 94l-139 139zM557 1069l141 -141l158 137l-31 37l-53 -47l-108 106z" />
<glyph unicode="&#xa9;" horiz-adv-x="1548" d="M78 682q0 -289 203 -492q205 -203 493 -202q293 0 494 200q203 199 202 494q0 295 -202 496q-201 201 -494 200q-291 0 -493.5 -202.5t-202.5 -493.5zM141 682q0 264 184.5 448.5t448.5 184.5q266 0 449 -185q184 -182 184 -448t-184 -451q-182 -182 -449 -182 q-262 0 -448 187q-184 186 -185 446zM440 643q0 -154 84 -256q88 -106 242 -106q188 0 295 174l-33 22q-33 -51 -115 -96v553q12 4 27.5 16.5t36.5 28.5l57 57l-26 31q-66 -47 -78 -47q-31 0 -64 61l-280 -270l28 -29l52 49v-329l-21 -21l29 -30l96 92v391l31 29 q27 -25 71 -31v-561q-31 -2 -47 -2h-16q-121 0 -191 104q-63 90 -63 217q0 197 162 359l-29 32q-123 -106 -176 -192q-72 -115 -72 -246z" />
<glyph unicode="&#xaa;" horiz-adv-x="591" d="M78 760q0 -88 121 -113l129 105q10 -61 55 -107l131 100l-29 31l-36 -26q-18 31 -19 73v193l72 53l-29 33l-43 -33l-72 68q-45 -63 -143 -105q23 29 23 47t-20.5 34.5t-41.5 16.5q-63 0 -63 -59q0 -39 98 -131q-51 -45 -79 -72.5t-36 -38.5q-18 -29 -18 -69zM84 518h414 v55h-414v-55zM164 813q0 29 26 53q14 10 26.5 20.5t25.5 20.5l32 -35l33 29l-86 90q43 8 84 37l21 -18v-205l-80 -66q-29 4 -53 25q-29 23 -29 49z" />
<glyph unicode="&#xab;" horiz-adv-x="923" d="M59 360q225 -100 322 -313l70 152q-119 164 -285 204l258 267l-33 35zM418 360q233 -109 321 -313l70 152q-123 164 -283 204l256 267l-32 35z" />
<glyph unicode="&#xac;" horiz-adv-x="1024" d="M74 463h688v-463h190v547h-878v-84z" />
<glyph unicode="&#xad;" horiz-adv-x="425" d="M41 276l45 -18l31 72h133q68 0 90 53l45 113l-45 18l-27 -63h-159q-39 0 -72 -70q-4 -8 -14.5 -33.5t-26.5 -71.5z" />
<glyph unicode="&#xae;" horiz-adv-x="1548" d="M78 682q0 -289 203 -492q205 -203 493 -202q293 0 494 200q203 199 202 494q0 295 -202 496q-201 201 -494 200q-291 0 -493.5 -202.5t-202.5 -493.5zM141 682q0 264 184.5 448.5t448.5 184.5q266 0 449 -185q184 -182 184 -448t-184 -451q-182 -182 -449 -182 q-262 0 -448 187q-184 186 -185 446zM408 862h36q18 98 88 99q57 0 58 -82v-138q-109 0 -109 -100q0 -39 19 -84l39 21q-8 18 -9 32q0 43 39 43q12 0 21 -8v-237q-74 -33 -119 -113l39 -29q45 57 127 58q72 0 129 -58l113 105l-29 28l-25 -24q-23 18 -34 26v236l49 35 q37 -47 73 -215q35 -145 107 -189l123 111l-29 27l-43 -37q-23 14 -31 26q-4 12 -6 22.5t-4 18.5q-10 57 -18 95t-17 59q-27 82 -84 129q106 86 123 104q25 27 25 88q0 82 -98 168l-170 -118v104h-41v-133l-56 -39q0 184 -131 184q-135 0 -155 -215zM694 420v424l56 37v-465 q-10 2 -24.5 3t-31.5 1zM791 688v221l96 70q74 -74 74 -113q0 -53 -62 -104q-8 -8 -108 -74z" />
<glyph unicode="&#xaf;" horiz-adv-x="985" d="M82 1300l45 -18l31 72h442q72 0 92 57l43 109l-43 18l-26 -63h-471q-39 0 -72 -70q-4 -8 -14.5 -33.5t-26.5 -71.5z" />
<glyph unicode="&#xb0;" horiz-adv-x="804" d="M143 1126q0 -55 20.5 -102t55.5 -82t83.5 -54.5t103.5 -19.5q109 0 182 74q74 76 74 184q0 104 -76 179q-74 74 -180 73q-106 0 -184.5 -71.5t-78.5 -180.5zM209 1124q0 80 55 136.5t137 56.5q86 0 140.5 -54.5t54.5 -140.5q0 -41 -15.5 -75.5t-42 -60t-61.5 -41 t-74 -15.5q-82 0 -138 56t-56 138z" />
<glyph unicode="&#xb1;" d="M41 147h694l43 89h-694zM41 598h321v-297l95 43v254h278l43 88h-321v297l-95 -43v-254h-278z" />
<glyph unicode="&#xb2;" horiz-adv-x="550" d="M41 545l37 -15q27 63 94 64q82 0 195 -64l112 123l-35 27l-38 -43q-86 41 -144 41q-80 0 -143 -45q45 47 89 89t85 83q168 162 168 266h31v43q-20 -2 -31.5 -3t-16.5 -1q-133 0 -219 129q-59 -145 -174 -145l-4 -35q39 -12 84 -12q86 0 162 65q33 -16 55 -25q2 -6 2 -10 v-2q0 -70 -139 -219t-170 -311z" />
<glyph unicode="&#xb3;" horiz-adv-x="550" d="M51 616l31 -32q37 31 55 30q31 0 103 -86q31 33 56.5 55.5t53 37t60 19.5t75.5 5v41q-10 2 -14 2h-4h-6t-21 -2v164l-121 72l109 47l2 106l31 -2v41q-129 14 -213 123q-51 -94 -94 -94q-23 0 -54 24l-26 -32q66 -63 143 -64q37 0 94 45l13 -6v-141l-218 -95l21 -36l76 32 l129 -75v-136l-27 -16q-59 49 -104 49q-62 0 -150 -76z" />
<glyph unicode="&#xb4;" horiz-adv-x="1024" d="M338 885q23 -2 35 -2h18q119 0 207 82q84 80 98 198l-188 -53q0 -80 -46 -129t-124 -49v-47z" />
<glyph unicode="&#xb5;" horiz-adv-x="917" d="M2 807l18 -19l58 64q51 -18 51 -82l4 -612q0 -186 66 -471h14q10 37 22.5 73.5t24.5 73.5q31 101 37 148l274 284q0 -113 23 -164q27 -51 119 -120h16l176 225l-20 20l-72 -77q-51 -2 -51 79v537q0 63 57 84v14q-94 25 -145 162h-17q-45 -129 -145 -162v-14 q59 -23 59 -84v-453l-168 -176q-61 72 -86 88v584q0 133 -131 209h-18z" />
<glyph unicode="&#xb6;" d="M35 645l31 -35l61 56l164 -103l215 166v-1057l-96 -86l32 -35l299 267v1327l103 92l-33 35l-80 -70l-213 164q-127 -141 -350 -141h-25q-20 0 -57 2v-47l55 -4v-435zM285 743v443q82 14 147 49l78 -59v-381l-137 -105zM590 -256v1372l67 -53v-1258z" />
<glyph unicode="&#xb7;" horiz-adv-x="477" d="M35 375l31 -37l59 51l117 -108l200 168l-32 36l-66 -57l-117 109z" />
<glyph unicode="&#xb8;" horiz-adv-x="1024" d="M444 -379q35 -2 54.5 -3t23.5 -1q72 0 131 43q63 45 64 117q0 90 -115 131l-143 -111q61 -6 76 -12q43 -16 43 -53q0 -66 -86 -66l-8 1q-9 1 -25 3z" />
<glyph unicode="&#xb9;" horiz-adv-x="550" d="M109 1098l30 -29l49 45q41 -29 41 -80v-348l-88 -82l33 -31l43 39l88 -82l141 134l-32 28l-45 -43l-31 31v387q0 123 -84 166z" />
<glyph unicode="&#xba;" horiz-adv-x="620" d="M78 713l28 -31l39 31l95 -66q119 80 268 80v43h-31v252l66 55l-29 33l-41 -35l-92 62q-96 -80 -270 -80v-43h32v-246zM96 518h428v55h-428v-55zM248 782v240q41 8 76 25l51 -33v-252q-16 -4 -32.5 -8t-33.5 -13z" />
<glyph unicode="&#xbb;" horiz-adv-x="923" d="M115 553q125 -172 282 -205l-256 -266l33 -35l332 344q-227 102 -322 314zM473 553q129 -172 285 -205l-258 -266l32 -35l332 344q-127 57 -192 125q-57 57 -129 189z" />
<glyph unicode="&#xbc;" horiz-adv-x="1312" d="M106 1098l31 -31l49 45q41 -29 41 -78v-348l-88 -82l33 -31l43 39l88 -82l141 134l-32 28l-45 -43l-31 31v387q0 123 -84 166zM240 -18l39 -27l792 1288l-41 27zM809 201h256v-90l-76 -60l29 -31l41 31l74 -65l129 100l-29 33l-41 -33l-21 18v97h105v43l-105 -2v327 l70 58l-29 30l-41 -32l-67 63l-295 -391v-96zM913 244v121l154 200v-321h-154z" />
<glyph unicode="&#xbd;" horiz-adv-x="1312" d="M109 1098l30 -31l49 45q41 -29 41 -78v-348l-88 -82l33 -31l43 39l88 -82l141 134l-32 28l-45 -43l-31 31v387q0 123 -84 166zM242 -18l39 -27l792 1288l-41 27zM805 0l35 -12q31 59 96 59q80 0 194 -59l111 121l-33 26l-39 -43q-82 41 -145 41q-74 0 -143 -45 q27 55 118 131q123 102 152 133q74 82 74 172l28 2v43q-20 -2 -31.5 -3t-15.5 -1q-133 0 -217 127q-59 -145 -176 -145l-2 -35q51 -12 84 -12q84 0 162 67q18 -16 55 -24q0 -86 -137 -230q-139 -145 -170 -313z" />
<glyph unicode="&#xbe;" horiz-adv-x="1312" d="M51 618l31 -34q39 31 55 30q31 0 103 -86q57 70 106 93q51 27 139 26v41l-45 -2v166l-121 72l109 47l2 104l31 -2v41q-127 16 -213 123q-51 -94 -94 -94q-23 0 -54 24l-26 -32q66 -63 143 -64q37 0 94 47l13 -6v-141l-218 -97l21 -36l76 34l129 -77v-136l-27 -16 q-59 49 -104 49q-44 0 -150 -74zM240 -18l41 -27l792 1288l-41 27zM809 201h256v-90l-76 -60l29 -31l41 31l74 -65l129 100l-27 33l-41 -33l-23 18v97h105v43l-105 -2v327l72 58l-29 30l-40 -32l-70 63l-295 -391v-96zM913 244v121l154 200v-321h-154z" />
<glyph unicode="&#xbf;" horiz-adv-x="634" d="M0 -215q0 -117 84 -201q86 -86 203 -86q211 0 288 264l-149 138l6 -62q0 -102 -49 -178q-59 -84 -156 -84q-57 0 -98 38t-41 93q0 76 82 166q39 39 76 78t76 78q81 94 81 178q0 137 -102 235l-35 -28q55 -61 56 -138q0 -49 -82 -131q-70 -70 -108 -108.5t-48 -48.5 q-84 -106 -84 -203zM121 612l31 -37l67 56l117 -109l192 162l-32 37l-60 -51l-117 108z" />
<glyph unicode="&#xc0;" horiz-adv-x="1124" d="M-92 -156q0 -133 98 -227q103 -96 232 -96h18q16 0 45 2v49q-10 -2 -21.5 -3t-23.5 -1q-117 0 -201 70q-86 76 -86 188q0 98 74 164q70 57 170 57q133 0 240 -100l200 200l-32 37l-74 -71q-121 72 -258 71l80 226h444l84 -283q39 -137 121 -180l203 200l-33 37l-74 -73 q-41 16 -59 49q-4 8 -11.5 26.5t-15.5 46.5l-268 893q-37 123 -62 158l19 59l-45 19l-19 -43q-63 45 -135 45q-106 0 -190 -76q-29 -23 -60.5 -63.5t-70.5 -98.5l39 -26q86 125 194 125q92 0 154 -88l-80 -209q-39 2 -59.5 3t-24.5 1q-156 0 -156 -178q0 -55 25 -119l45 20 q-10 31 -10 47q0 94 82 95q27 0 47 -21l-217 -592q-139 -16 -232 -108q-96 -96 -96 -232zM317 1681q18 -100 105 -168q88 -65 186 -65h17q14 0 34 2v49q-6 -2 -18 -2q-55 0 -102 53.5t-47 106.5l3 19q3 20 9 59zM428 565l184 506l152 -506h-336z" />
<glyph unicode="&#xc1;" horiz-adv-x="1124" d="M-92 -156q0 -133 98 -227q103 -96 232 -96h18q16 0 45 2v49q-10 -2 -21.5 -3t-23.5 -1q-117 0 -201 70q-86 76 -86 188q0 98 74 164q70 57 170 57q133 0 240 -100l200 200l-32 37l-74 -71q-121 72 -258 71l80 226h444l84 -283q39 -137 121 -180l203 200l-33 37l-74 -73 q-41 16 -59 49q-4 8 -11.5 26.5t-15.5 46.5l-268 893q-37 123 -62 158l19 59l-45 19l-19 -43q-63 45 -135 45q-106 0 -190 -76q-29 -23 -60.5 -63.5t-70.5 -98.5l39 -26q86 125 194 125q92 0 154 -88l-80 -209q-39 2 -59.5 3t-24.5 1q-156 0 -156 -178q0 -55 25 -119l45 20 q-10 31 -10 47q0 94 82 95q27 0 47 -21l-217 -592q-139 -16 -232 -108q-96 -96 -96 -232zM428 565l184 506l152 -506h-336zM528 1456q23 -2 35 -2h19q121 0 204 82q86 82 101 199l-189 -54q0 -80 -46 -129t-124 -49v-47z" />
<glyph unicode="&#xc2;" horiz-adv-x="1124" d="M-92 -156q0 -133 98 -227q103 -96 232 -96h18q16 0 45 2v49q-10 -2 -21.5 -3t-23.5 -1q-117 0 -201 70q-86 76 -86 188q0 98 74 164q70 57 170 57q133 0 240 -100l200 200l-32 37l-74 -71q-121 72 -258 71l80 226h444l84 -283q39 -137 121 -180l203 200l-33 37l-74 -73 q-41 16 -59 49q-4 8 -11.5 26.5t-15.5 46.5l-268 893q-37 123 -62 158l19 59l-45 19l-19 -43q-63 45 -135 45q-106 0 -190 -76q-29 -23 -60.5 -63.5t-70.5 -98.5l39 -26q86 125 194 125q92 0 154 -88l-80 -209q-39 2 -59.5 3t-24.5 1q-156 0 -156 -178q0 -55 25 -119l45 20 q-10 31 -10 47q0 94 82 95q27 0 47 -21l-217 -592q-139 -16 -232 -108q-96 -96 -96 -232zM350 1495l35 -35l152 164q102 -164 321 -164v43q-164 18 -164 178q0 18 6 54l-170 -49zM428 565l184 506l152 -506h-336z" />
<glyph unicode="&#xc3;" horiz-adv-x="1124" d="M-92 -156q0 -133 98 -227q103 -96 232 -96h18q16 0 45 2v49q-10 -2 -21.5 -3t-23.5 -1q-117 0 -201 70q-86 76 -86 188q0 98 74 164q70 57 170 57q133 0 240 -100l200 200l-32 37l-74 -71q-121 72 -258 71l80 226h444l84 -283q39 -137 121 -180l203 200l-33 37l-74 -73 q-41 16 -59 49q-4 8 -11.5 26.5t-15.5 46.5l-268 893q-37 123 -62 158l19 59l-45 19l-19 -43q-63 45 -135 45q-106 0 -190 -76q-29 -23 -60.5 -63.5t-70.5 -98.5l39 -26q86 125 194 125q92 0 154 -88l-80 -209q-39 2 -59.5 3t-24.5 1q-156 0 -156 -178q0 -55 25 -119l45 20 q-10 31 -10 47q0 94 82 95q27 0 47 -21l-217 -592q-139 -16 -232 -108q-96 -96 -96 -232zM330 1526l39 -35q76 94 96 94q12 0 90 -43q76 -43 115 -43q61 0 100 35q37 41 64.5 71.5t44.5 53.5l-39 35q-10 -14 -21.5 -28.5t-21.5 -29.5q-31 -37 -52 -37q-37 0 -104 43 q-66 43 -102 44q-72 0 -121 -56zM428 565l184 506l152 -506h-336z" />
<glyph unicode="&#xc4;" horiz-adv-x="1124" d="M-92 -156q0 -133 98 -227q103 -96 232 -96h18q16 0 45 2v49q-10 -2 -21.5 -3t-23.5 -1q-117 0 -201 70q-86 76 -86 188q0 98 74 164q70 57 170 57q133 0 240 -100l200 200l-32 37l-74 -71q-121 72 -258 71l80 226h444l84 -283q39 -137 121 -180l203 200l-33 37l-74 -73 q-41 16 -59 49q-4 8 -11.5 26.5t-15.5 46.5l-268 893q-37 123 -62 158l19 59l-45 19l-19 -43q-63 45 -135 45q-106 0 -190 -76q-29 -23 -60.5 -63.5t-70.5 -98.5l39 -26q86 125 194 125q92 0 154 -88l-80 -209q-39 2 -59.5 3t-24.5 1q-156 0 -156 -178q0 -55 25 -119l45 20 q-10 31 -10 47q0 94 82 95q27 0 47 -21l-217 -592q-139 -16 -232 -108q-96 -96 -96 -232zM244 1595l30 -36l56 47l106 -107l107 94l-140 140zM428 565l184 506l152 -506h-336zM586 1640l141 -141l158 137l-31 37l-53 -47l-109 107z" />
<glyph unicode="&#xc5;" horiz-adv-x="1124" d="M-92 -156q0 -133 98 -227q103 -96 232 -96h18q16 0 45 2v49q-10 -2 -21.5 -3t-23.5 -1q-117 0 -201 70q-86 76 -86 188q0 98 74 164q70 57 170 57q133 0 240 -100l200 200l-32 37l-74 -71q-121 72 -258 71l80 226h444l84 -283q39 -137 121 -180l203 200l-33 37l-74 -73 q-41 16 -59 49q-4 8 -11.5 26.5t-15.5 46.5l-268 893q-37 123 -62 158l19 59l-45 19l-19 -43q-63 45 -135 45q-106 0 -190 -76q-29 -23 -60.5 -63.5t-70.5 -98.5l39 -26q86 125 194 125q92 0 154 -88l-80 -209q-39 2 -59.5 3t-24.5 1q-156 0 -156 -178q0 -55 25 -119l45 20 q-10 31 -10 47q0 94 82 95q27 0 47 -21l-217 -592q-139 -16 -232 -108q-96 -96 -96 -232zM401 1587q0 -117 203 -168q205 63 205 189q0 125 -205 170q-203 -80 -203 -191zM428 565l184 506l152 -506h-336zM483 1618q0 51 52 90q190 -28 190 -137q0 -49 -53 -84 q-188 41 -189 131z" />
<glyph unicode="&#xc6;" horiz-adv-x="1740" d="M-92 -156q0 -131 96 -227q100 -96 232 -96h20t45 2v49q-10 -2 -21.5 -3t-25.5 -1q-115 0 -199 72q-86 74 -86 186q0 98 74 164q70 57 170 57q131 0 238 -100l202 200l-35 37l-71 -71q-125 72 -246 71l148 224h411v-400l-31 -22l31 -37q172 147 287 147q123 0 274 -147 l195 194l-29 35l-55 -55q-41 31 -75 52.5t-56 35.5v407l162 164l-35 37l-49 -51l-168 164l-160 -162v399q90 72 143 72q74 0 217 -156l183 179l-35 36l-39 -36q-88 100 -207 100q-57 0 -106 -23q-66 -47 -118 -83.5t-87 -65.5v-993l-84 -56v934q0 131 -23 172l52 76l-48 29 l-41 -58q-68 68 -172 68q-100 0 -188 -74q-80 -66 -129 -162l41 -28q78 127 205 127q104 0 139 -92l-139 -217q-29 4 -55.5 7t-51.5 3q-182 0 -182 -172q0 -63 27 -119l43 18q-10 31 -11 47q0 39 21 66q20 31 59 31q31 0 53 -29l-387 -586q-137 -18 -229 -110 q-94 -94 -94 -230zM551 565l313 479v-479h-313zM1151 223v479l70 66l131 -127v-414q-55 20 -103 21q-49 0 -98 -25z" />
<glyph unicode="&#xc7;" horiz-adv-x="1075" d="M78 602q0 -264 139 -444q150 -191 412 -191q311 0 493 293l-37 27q-96 -135 -213 -170v1011q31 14 105 78q47 49 96 97l-31 38q-94 -82 -129 -81q-57 0 -114 106l-490 -489l35 -35l125 125v-623l-57 -57l32 -35l181 176v700l63 58q53 -47 137 -58v-1022q-39 -8 -80 -8 q-244 0 -374 178q-119 158 -119 412q0 360 276 637l-34 41q-233 -233 -297 -336q-119 -180 -119 -428zM469 -379q35 -2 54.5 -3t23.5 -1q74 0 133 41q63 45 63 119q0 90 -116 131l-144 -111q61 -6 76 -12q43 -16 43 -53q0 -29 -25.5 -46.5t-56.5 -17.5h-12q-9 0 -25 2z" />
<glyph unicode="&#xc8;" horiz-adv-x="1191" d="M-70 1126q0 -92 99 -190l32 35q-76 63 -75 145q0 41 24.5 71t65.5 30q37 0 117 -29q74 -27 116 -27q57 0 135 56q4 2 33 25.5t86 70.5l-28 33q-59 -51 -113 -52l-150 47q-80 25 -129 25q-86 0 -149 -80q-64 -72 -64 -160zM94 -162q0 -141 109 -231q103 -84 248 -84 q82 0 167 41l-18 45q-76 -39 -154 -39q-119 0 -204 74q-92 76 -92 194q0 133 110 211q100 74 238 74q213 0 376 -172l197 194l-33 35l-55 -53q-53 45 -131 86v412l164 163l-33 33l-53 -49l-166 164l-164 -164v397q90 72 143 72q78 0 220 -154l180 179l-33 37l-39 -37 q-88 100 -207 100q-59 0 -108 -25q-135 -92 -203 -147v-932q-188 -23 -313 -129q-145 -121 -146 -295zM127 594q0 -61 20 -125l52 18q-12 27 -13 52q0 37 22.5 63.5t59.5 26.5q23 0 45 -17v-331l-30 -27l30 -37l156 125v754l31 24l-31 37l-156 -127v-258q-186 0 -186 -178z M350 1683q18 -98 104.5 -165.5t186.5 -67.5h16t35 2v49q-6 -2 -18 -2q-57 0 -103 51q-47 53 -47 109l3 19q3 20 10 59zM600 266v439l70 67l133 -131v-410q-92 35 -203 35z" />
<glyph unicode="&#xc9;" horiz-adv-x="1191" d="M-70 1126q0 -92 99 -190l32 35q-76 63 -75 145q0 41 24.5 71t65.5 30q37 0 117 -29q74 -27 116 -27q57 0 135 56q4 2 33 25.5t86 70.5l-28 33q-59 -51 -113 -52l-150 47q-80 25 -129 25q-86 0 -149 -80q-64 -72 -64 -160zM94 -162q0 -141 109 -231q103 -84 248 -84 q82 0 167 41l-18 45q-76 -39 -154 -39q-119 0 -204 74q-92 76 -92 194q0 133 110 211q100 74 238 74q213 0 376 -172l197 194l-33 35l-55 -53q-53 45 -131 86v412l164 163l-33 33l-53 -49l-166 164l-164 -164v397q90 72 143 72q78 0 220 -154l180 179l-33 37l-39 -37 q-88 100 -207 100q-59 0 -108 -25q-135 -92 -203 -147v-932q-188 -23 -313 -129q-145 -121 -146 -295zM127 594q0 -61 20 -125l52 18q-12 27 -13 52q0 37 22.5 63.5t59.5 26.5q23 0 45 -17v-331l-30 -27l30 -37l156 125v754l31 24l-31 37l-156 -127v-258q-186 0 -186 -178z M559 1458q23 -2 35 -2h18q121 0 205 82q86 82 101 199l-189 -54q0 -80 -46 -129t-124 -49v-47zM600 266v439l70 67l133 -131v-410q-92 35 -203 35z" />
<glyph unicode="&#xca;" horiz-adv-x="1191" d="M-70 1126q0 -92 99 -190l32 35q-76 63 -75 145q0 41 24.5 71t65.5 30q37 0 117 -29q74 -27 116 -27q57 0 135 56q4 2 33 25.5t86 70.5l-28 33q-59 -51 -113 -52l-150 47q-80 25 -129 25q-86 0 -149 -80q-64 -72 -64 -160zM94 -162q0 -141 109 -231q103 -84 248 -84 q82 0 167 41l-18 45q-76 -39 -154 -39q-119 0 -204 74q-92 76 -92 194q0 133 110 211q100 74 238 74q213 0 376 -172l197 194l-33 35l-55 -53q-53 45 -131 86v412l164 163l-33 33l-53 -49l-166 164l-164 -164v397q90 72 143 72q78 0 220 -154l180 179l-33 37l-39 -37 q-88 100 -207 100q-59 0 -108 -25q-135 -92 -203 -147v-932q-188 -23 -313 -129q-145 -121 -146 -295zM127 594q0 -61 20 -125l52 18q-12 27 -13 52q0 37 22.5 63.5t59.5 26.5q23 0 45 -17v-331l-30 -27l30 -37l156 125v754l31 24l-31 37l-156 -127v-258q-186 0 -186 -178z M383 1497l35 -35l151 164q104 -164 322 -164v43q-164 18 -164 178q0 18 6 54l-170 -49zM600 266v439l70 67l133 -131v-410q-92 35 -203 35z" />
<glyph unicode="&#xcb;" horiz-adv-x="1191" d="M-70 1126q0 -92 99 -190l32 35q-76 63 -75 145q0 41 24.5 71t65.5 30q37 0 117 -29q74 -27 116 -27q57 0 135 56q4 2 33 25.5t86 70.5l-28 33q-59 -51 -113 -52l-150 47q-80 25 -129 25q-86 0 -149 -80q-64 -72 -64 -160zM94 -162q0 -141 109 -231q103 -84 248 -84 q82 0 167 41l-18 45q-76 -39 -154 -39q-119 0 -204 74q-92 76 -92 194q0 133 110 211q100 74 238 74q213 0 376 -172l197 194l-33 35l-55 -53q-53 45 -131 86v412l164 163l-33 33l-53 -49l-166 164l-164 -164v397q90 72 143 72q78 0 220 -154l180 179l-33 37l-39 -37 q-88 100 -207 100q-59 0 -108 -25q-135 -92 -203 -147v-932q-188 -23 -313 -129q-145 -121 -146 -295zM127 594q0 -61 20 -125l52 18q-12 27 -13 52q0 37 22.5 63.5t59.5 26.5q23 0 45 -17v-331l-30 -27l30 -37l156 125v754l31 24l-31 37l-156 -127v-258q-186 0 -186 -178z M274 1597l31 -36l55 47l107 -107l106 94l-139 140zM600 266v439l70 67l133 -131v-410q-92 35 -203 35zM616 1642l142 -141l157 137l-30 37l-54 -47l-108 107z" />
<glyph unicode="&#xcc;" horiz-adv-x="1005" d="M-188 -88q0 -168 116 -281q119 -114 283 -114q35 0 61 8v45l-67 -6q-139 0 -238 102q-100 100 -100 240q0 88 43 155q49 82 129 82q41 0 174 -90q131 -88 231 -88q90 0 179 60l211 151v1067l75 64l-28 36l-203 -163v-1051q-84 -68 -121 -68q-57 0 -202.5 121t-235.5 121 q-139 0 -228 -131q-80 -115 -79 -260zM127 1124q0 -96 98 -190l35 35q-80 63 -80 147q0 39 28 70t66 31q33 0 113 -29q82 -29 121 -29q59 0 137 53l117 99l-29 35q-57 -51 -115 -52q-84 25 -159 49q-70 20 -117 21q-84 0 -152 -80q-63 -72 -63 -160zM252 584q0 -53 18 -121 l54 20q-12 31 -13 49q0 35 22.5 64t59.5 29q20 0 45 -19v-403l-28 -23l28 -37l156 125v811l31 25l-31 37l-156 -127v-254q-186 0 -186 -176zM326 1681q18 -98 102 -168q88 -65 188 -65h17q14 0 35 2v49q-6 -2 -19 -2q-57 0 -102 51q-47 53 -47 109l3 19q3 20 9 59z" />
<glyph unicode="&#xcd;" horiz-adv-x="1005" d="M-188 -88q0 -168 116 -281q119 -114 283 -114q35 0 61 8v45l-67 -6q-139 0 -238 102q-100 100 -100 240q0 88 43 155q49 82 129 82q41 0 174 -90q131 -88 231 -88q90 0 179 60l211 151v1067l75 64l-28 36l-203 -163v-1051q-84 -68 -121 -68q-57 0 -202.5 121t-235.5 121 q-139 0 -228 -131q-80 -115 -79 -260zM127 1124q0 -96 98 -190l35 35q-80 63 -80 147q0 39 28 70t66 31q33 0 113 -29q82 -29 121 -29q59 0 137 53l117 99l-29 35q-57 -51 -115 -52q-84 25 -159 49q-70 20 -117 21q-84 0 -152 -80q-63 -72 -63 -160zM252 584q0 -53 18 -121 l54 20q-12 31 -13 49q0 35 22.5 64t59.5 29q20 0 45 -19v-403l-28 -23l28 -37l156 125v811l31 25l-31 37l-156 -127v-254q-186 0 -186 -176zM469 1456q23 -2 35 -2h18q121 0 205 82q86 82 100 199l-188 -54q0 -80 -46 -129t-124 -49v-47z" />
<glyph unicode="&#xce;" horiz-adv-x="1005" d="M-188 -88q0 -168 116 -281q119 -114 283 -114q35 0 61 8v45l-67 -6q-139 0 -238 102q-100 100 -100 240q0 88 43 155q49 82 129 82q41 0 174 -90q131 -88 231 -88q90 0 179 60l211 151v1067l75 64l-28 36l-203 -163v-1051q-84 -68 -121 -68q-57 0 -202.5 121t-235.5 121 q-139 0 -228 -131q-80 -115 -79 -260zM127 1124q0 -96 98 -190l35 35q-80 63 -80 147q0 39 28 70t66 31q33 0 113 -29q82 -29 121 -29q59 0 137 53l117 99l-29 35q-57 -51 -115 -52q-84 25 -159 49q-70 20 -117 21q-84 0 -152 -80q-63 -72 -63 -160zM252 584q0 -53 18 -121 l54 20q-12 31 -13 49q0 35 22.5 64t59.5 29q20 0 45 -19v-403l-28 -23l28 -37l156 125v811l31 25l-31 37l-156 -127v-254q-186 0 -186 -176zM332 1495l35 -35l151 164q102 -164 322 -164v43q-164 18 -164 178q0 18 6 54l-170 -49z" />
<glyph unicode="&#xcf;" horiz-adv-x="1005" d="M-188 -88q0 -168 116 -281q119 -114 283 -114q35 0 61 8v45l-67 -6q-139 0 -238 102q-100 100 -100 240q0 88 43 155q49 82 129 82q41 0 174 -90q131 -88 231 -88q90 0 179 60l211 151v1067l75 64l-28 36l-203 -163v-1051q-84 -68 -121 -68q-57 0 -202.5 121t-235.5 121 q-139 0 -228 -131q-80 -115 -79 -260zM127 1124q0 -96 98 -190l35 35q-80 63 -80 147q0 39 28 70t66 31q33 0 113 -29q82 -29 121 -29q59 0 137 53l117 99l-29 35q-57 -51 -115 -52q-84 25 -159 49q-70 20 -117 21q-84 0 -152 -80q-63 -72 -63 -160zM252 584q0 -53 18 -121 l54 20q-12 31 -13 49q0 35 22.5 64t59.5 29q20 0 45 -19v-403l-28 -23l28 -37l156 125v811l31 25l-31 37l-156 -127v-254q-186 0 -186 -176zM281 1597l30 -36l56 47l106 -107l107 94l-140 140zM623 1642l141 -141l158 137l-31 37l-53 -47l-109 107z" />
<glyph unicode="&#xd0;" horiz-adv-x="1236" d="M10 -162q0 -141 96 -231q95 -86 238 -86q90 0 182 41l-18 43q-78 -37 -156 -37q-115 0 -196 67q-88 74 -88 187q0 111 92 176q82 55 198 55q137 0 277 -104q195 176 430 176q6 0 24.5 -1t51.5 -3v53h-66v795q0 168 -61 270q-78 127 -232 127q-47 0 -104 -12l-383 -78 q-25 -4 -49.5 -7t-48.5 -3q-82 0 -121 88l-41 -21q33 -84 98 -143q72 -63 160 -64q59 0 254 50v-983q-66 4 -101.5 6t-39.5 2q-154 0 -273 -107q-123 -104 -123 -256zM125 588l43 -21l35 74h110v-375l-30 -22l30 -37l156 125v725l29 22l-29 37l-156 -125v-254h-94 q-25 0 -47 -47zM594 178v242q88 45 162 45q76 0 164 -45v-262q-35 -8 -71 -21t-71 -33q-90 57 -184 74zM594 467v174q121 0 143 12q27 14 70 125l-43 19l-29 -60h-141v176q76 -45 162 -45q88 0 164 45v-446q-70 45 -164 45q-92 0 -162 -45zM594 969v215q78 14 117 20l39 6 q78 0 125 -57t47 -137q0 -101 -158 -101q-92 0 -170 54z" />
<glyph unicode="&#xd1;" horiz-adv-x="1216" d="M-72 -164q0 -139 101 -227q98 -86 239 -86q27 0 70 6l-10 45q-37 -6 -60 -6q-111 0 -194 72q-84 74 -84 184q0 98 73 164q72 59 173 59q123 0 243 -92l201 197l-35 32l-72 -69q-86 61 -188 69v244q78 45 152 45q53 0 116 -22q70 -29 92 -68l103 -219q90 -184 231 -209 v1175q45 31 103 84l94 95l-35 32q-74 -82 -100 -81q-55 0 -125 106l-240 -240l33 -34l102 100q47 -66 121 -66v-223q-78 -45 -166 -45q-119 0 -192 62l-111 219q-29 57 -53.5 96t-46.5 61q-68 70 -166 70q-104 0 -191 -96q-35 -41 -62.5 -89t-43.5 -106l43 -16 q61 145 178 145q53 0 117 -35v-403q-188 0 -188 -168q0 -55 24 -129l45 23q-10 25 -10 47q0 94 82 94q29 0 47 -25v-424q-164 0 -283 -90q-127 -96 -127 -258zM385 479v647q27 -27 35 -45l280 -602q-71 39 -161 39q-84 0 -154 -39zM416 1526l39 -35q76 94 96 94q12 0 90 -43 q76 -43 115 -43q61 0 100 35q37 41 64.5 71.5t44.5 53.5l-39 35q-70 -94 -95 -95q-37 0 -104 43q-66 43 -102 44q-72 0 -121 -56zM705 842q76 -31 157 -31q92 0 170 37v-643q-45 27 -71 88z" />
<glyph unicode="&#xd2;" horiz-adv-x="1337" d="M78 621q0 -258 162 -451q172 -203 426 -203q270 0 432 223.5t162 507.5q0 430 -363 668l-129 -92v72h-49v-107l-336 -246l29 -37l80 60v-778l-50 -41l29 -37l176 141v823l72 52v-1160q-31 -2 -49 -2h-21q-369 0 -368 625q0 262 51 385q31 80 108 158q35 35 68 67.5 t65 67.5l-24 29q-471 -283 -471 -725zM422 1683q14 -96 104 -167q89 -66 189 -66h16t33 2v49q-6 -2 -19 -2q-57 0 -102 51q-47 53 -47 109l3 19q3 20 9 59zM768 20v416q74 35 143 35q96 0 168 -47q-72 -356 -311 -404zM768 483v361q63 -33 135 -33q80 0 158 33 q37 -133 37 -213q0 -8 -3 -46t-8 -110q-81 41 -161 41q-78 0 -158 -33zM768 895v319q106 -74 166 -141q63 -74 117 -182q-68 -31 -140 -31q-74 0 -143 35z" />
<glyph unicode="&#xd3;" horiz-adv-x="1337" d="M78 621q0 -258 162 -451q172 -203 426 -203q270 0 432 223.5t162 507.5q0 430 -363 668l-129 -92v72h-49v-107l-336 -246l29 -37l80 60v-778l-50 -41l29 -37l176 141v823l72 52v-1160q-31 -2 -49 -2h-21q-369 0 -368 625q0 262 51 385q31 80 108 158q35 35 68 67.5 t65 67.5l-24 29q-471 -283 -471 -725zM633 1458q23 -2 35 -2h18q119 0 207 82q84 80 98 199l-188 -54q0 -80 -46 -129t-124 -49v-47zM768 20v416q74 35 143 35q96 0 168 -47q-72 -356 -311 -404zM768 483v361q63 -33 135 -33q80 0 158 33q37 -133 37 -213q0 -8 -3 -46 t-8 -110q-81 41 -161 41q-78 0 -158 -33zM768 895v319q106 -74 166 -141q63 -74 117 -182q-68 -31 -140 -31q-74 0 -143 35z" />
<glyph unicode="&#xd4;" horiz-adv-x="1337" d="M78 621q0 -258 162 -451q172 -203 426 -203q270 0 432 223.5t162 507.5q0 430 -363 668l-129 -92v72h-49v-107l-336 -246l29 -37l80 60v-778l-50 -41l29 -37l176 141v823l72 52v-1160q-31 -2 -49 -2h-21q-369 0 -368 625q0 262 51 385q31 80 108 158q35 35 68 67.5 t65 67.5l-24 29q-471 -283 -471 -725zM455 1497l34 -35l152 164q102 -164 322 -164v43q-164 18 -164 178q0 18 6 54l-170 -49zM768 20v416q74 35 143 35q96 0 168 -47q-72 -356 -311 -404zM768 483v361q63 -33 135 -33q80 0 158 33q37 -133 37 -213q0 -8 -3 -46t-8 -110 q-81 41 -161 41q-78 0 -158 -33zM768 895v319q106 -74 166 -141q63 -74 117 -182q-68 -31 -140 -31q-74 0 -143 35z" />
<glyph unicode="&#xd5;" horiz-adv-x="1337" d="M78 621q0 -258 162 -451q172 -203 426 -203q270 0 432 223.5t162 507.5q0 430 -363 668l-129 -92v72h-49v-107l-336 -246l29 -37l80 60v-778l-50 -41l29 -37l176 141v823l72 52v-1160q-31 -2 -49 -2h-21q-369 0 -368 625q0 262 51 385q31 80 108 158q35 35 68 67.5 t65 67.5l-24 29q-471 -283 -471 -725zM434 1526l39 -35q80 94 96 94q12 0 90 -43q76 -43 115 -43q61 0 100 35q37 41 65 71.5t44 53.5l-39 35q-70 -94 -94 -95q-37 0 -105 43q-66 43 -102 44q-63 0 -121 -56q-4 -4 -25.5 -29.5t-62.5 -74.5zM768 20v416q74 35 143 35 q96 0 168 -47q-72 -356 -311 -404zM768 483v361q63 -33 135 -33q80 0 158 33q37 -133 37 -213q0 -8 -3 -46t-8 -110q-81 41 -161 41q-78 0 -158 -33zM768 895v319q106 -74 166 -141q63 -74 117 -182q-68 -31 -140 -31q-74 0 -143 35z" />
<glyph unicode="&#xd6;" horiz-adv-x="1337" d="M78 621q0 -258 162 -451q172 -203 426 -203q270 0 432 223.5t162 507.5q0 430 -363 668l-129 -92v72h-49v-107l-336 -246l29 -37l80 60v-778l-50 -41l29 -37l176 141v823l72 52v-1160q-31 -2 -49 -2h-21q-369 0 -368 625q0 262 51 385q31 80 108 158q35 35 68 67.5 t65 67.5l-24 29q-471 -283 -471 -725zM348 1597l31 -36l55 47l107 -107l106 94l-139 140zM690 1642l141 -141l158 137l-31 37l-53 -47l-108 107zM768 20v416q74 35 143 35q96 0 168 -47q-72 -356 -311 -404zM768 483v361q63 -33 135 -33q80 0 158 33q37 -133 37 -213 q0 -8 -3 -46t-8 -110q-81 41 -161 41q-78 0 -158 -33zM768 895v319q106 -74 166 -141q63 -74 117 -182q-68 -31 -140 -31q-74 0 -143 35z" />
<glyph unicode="&#xd7;" d="M150 360l57 -65l203 203l202 -203l60 65l-201 199l201 199l-60 65l-202 -202l-203 202l-57 -65l198 -199z" />
<glyph unicode="&#xd8;" horiz-adv-x="1337" d="M78 621q0 -262 168 -463l-101 -146l41 -30l97 135q162 -150 385 -150q272 0 442 234q150 211 150 497q0 287 -175 500l97 139l-41 27l-90 -127q-66 68 -154 129l-129 -92v72h-49v-107l-336 -246l29 -37l80 60v-506l-164 -236q-47 145 -47 367q0 248 53 383 q43 106 168 225q23 23 41 40.5t30 27.5l-24 29q-471 -283 -471 -725zM352 217l140 199v-178l-50 -41l29 -37l176 141v823l72 52v-1160q-31 -2 -49 -2h-21q-197 0 -297 203zM768 20v416q74 35 143 35q96 0 168 -47q-72 -356 -311 -404zM768 483v260l201 289 q129 -172 129 -383q0 -12 -3 -55t-8 -119q-82 41 -161 41q-78 0 -158 -33zM768 836v378q100 -71 166 -141z" />
<glyph unicode="&#xd9;" horiz-adv-x="1253" d="M-45 -170q0 -143 90 -227q88 -80 238 -80v47q-106 0 -187 68q-84 72 -84 176q0 109 80 180q76 63 189 63q150 0 270 -116l375 307q0 -201 129 -299l198 196l-34 33l-66 -65q-72 35 -72 157v846l119 92l-31 41l-57 -41l-162 158l-217 -158l27 -41l76 56l90 -88v-244 q-80 -35 -152 -35q-66 0 -135 35v450h-47v-1196q-20 10 -44 18.5t-50 14.5v866q0 55 -3 94.5t-8 61.5q-20 76 -88 127q-51 39 -110 39q-121 0 -195 -121q-61 -102 -61 -233l41 -11q16 72 51 117q43 59 106 60q111 0 111 -154v-256q-188 0 -188 -166q0 -57 26 -131l45 14 q-12 31 -12 52q0 39 23.5 68.5t60.5 29.5q25 0 45 -21v-413q-164 -18 -272 -111q-115 -102 -115 -260zM381 1681q18 -98 102 -168q89 -65 189 -65h16q14 0 35 2v49q-6 -2 -18 -2q-57 0 -103 51q-47 53 -47 109l3 19q3 20 9 59zM639 119v313q92 35 147 35q59 0 140 -35v-121 l-254 -207q-8 4 -15.5 8.5t-17.5 6.5zM639 485v353q76 -29 143 -29q70 0 144 29v-353q-74 29 -142 29q-70 0 -145 -29z" />
<glyph unicode="&#xda;" horiz-adv-x="1253" d="M-45 -170q0 -143 90 -227q88 -80 238 -80v47q-106 0 -187 68q-84 72 -84 176q0 109 80 180q76 63 189 63q150 0 270 -116l375 307q0 -201 129 -299l198 196l-34 33l-66 -65q-72 35 -72 157v846l119 92l-31 41l-57 -41l-162 158l-217 -158l27 -41l76 56l90 -88v-244 q-80 -35 -152 -35q-66 0 -135 35v450h-47v-1196q-20 10 -44 18.5t-50 14.5v866q0 55 -3 94.5t-8 61.5q-20 76 -88 127q-51 39 -110 39q-121 0 -195 -121q-61 -102 -61 -233l41 -11q16 72 51 117q43 59 106 60q111 0 111 -154v-256q-188 0 -188 -166q0 -57 26 -131l45 14 q-12 31 -12 52q0 39 23.5 68.5t60.5 29.5q25 0 45 -21v-413q-164 -18 -272 -111q-115 -102 -115 -260zM590 1456q23 -2 35 -2h18q119 0 207 82q84 80 98 199l-188 -54q0 -80 -46 -129t-124 -49v-47zM639 119v313q92 35 147 35q59 0 140 -35v-121l-254 -207q-8 4 -15.5 8.5 t-17.5 6.5zM639 485v353q76 -29 143 -29q70 0 144 29v-353q-74 29 -142 29q-70 0 -145 -29z" />
<glyph unicode="&#xdb;" horiz-adv-x="1253" d="M-45 -170q0 -143 90 -227q88 -80 238 -80v47q-106 0 -187 68q-84 72 -84 176q0 109 80 180q76 63 189 63q150 0 270 -116l375 307q0 -201 129 -299l198 196l-34 33l-66 -65q-72 35 -72 157v846l119 92l-31 41l-57 -41l-162 158l-217 -158l27 -41l76 56l90 -88v-244 q-80 -35 -152 -35q-66 0 -135 35v450h-47v-1196q-20 10 -44 18.5t-50 14.5v866q0 55 -3 94.5t-8 61.5q-20 76 -88 127q-51 39 -110 39q-121 0 -195 -121q-61 -102 -61 -233l41 -11q16 72 51 117q43 59 106 60q111 0 111 -154v-256q-188 0 -188 -166q0 -57 26 -131l45 14 q-12 31 -12 52q0 39 23.5 68.5t60.5 29.5q25 0 45 -21v-413q-164 -18 -272 -111q-115 -102 -115 -260zM414 1495l35 -35l151 164q102 -164 322 -164v43q-164 18 -164 178q0 18 6 54l-170 -49zM639 119v313q92 35 147 35q59 0 140 -35v-121l-254 -207q-8 4 -15.5 8.5 t-17.5 6.5zM639 485v353q76 -29 143 -29q70 0 144 29v-353q-74 29 -142 29q-70 0 -145 -29z" />
<glyph unicode="&#xdc;" horiz-adv-x="1253" d="M-45 -170q0 -143 90 -227q88 -80 238 -80v47q-106 0 -187 68q-84 72 -84 176q0 109 80 180q76 63 189 63q150 0 270 -116l375 307q0 -201 129 -299l198 196l-34 33l-66 -65q-72 35 -72 157v846l119 92l-31 41l-57 -41l-162 158l-217 -158l27 -41l76 56l90 -88v-244 q-80 -35 -152 -35q-66 0 -135 35v450h-47v-1196q-20 10 -44 18.5t-50 14.5v866q0 55 -3 94.5t-8 61.5q-20 76 -88 127q-51 39 -110 39q-121 0 -195 -121q-61 -102 -61 -233l41 -11q16 72 51 117q43 59 106 60q111 0 111 -154v-256q-188 0 -188 -166q0 -57 26 -131l45 14 q-12 31 -12 52q0 39 23.5 68.5t60.5 29.5q25 0 45 -21v-413q-164 -18 -272 -111q-115 -102 -115 -260zM305 1597l31 -36l55 47l107 -107l106 94l-139 140zM639 119v313q92 35 147 35q59 0 140 -35v-121l-254 -207q-8 4 -15.5 8.5t-17.5 6.5zM639 485v353q76 -29 143 -29 q70 0 144 29v-353q-74 29 -142 29q-70 0 -145 -29zM647 1642l141 -141l158 137l-31 37l-53 -47l-108 107z" />
<glyph unicode="&#xdd;" horiz-adv-x="1255" d="M12 1010l43 -9q31 180 160 181q109 0 109 -162v-252q-188 0 -189 -164q0 -55 25 -131l47 12q-12 25 -12 52q0 98 81 98q27 0 48 -21v-475l223 -137q-55 -20 -95 -40.5t-67 -41.5q-74 -59 -74 -153q0 -80 51.5 -132.5t129.5 -52.5q76 0 135 43l194 139q45 33 86 33 q37 0 63.5 -30.5t26.5 -69.5q0 -53 -38.5 -90t-92.5 -37q-51 0 -104 27l-19 -41q63 -33 123 -33q80 0 133.5 55t53.5 135q0 88 -55.5 141.5t-143.5 53.5q-72 0 -217 -88q-143 -88 -154 -88q-33 0 -54 26.5t-21 59.5q0 80 157 139l363 135q74 29 105.5 79t31.5 136v805 l129 96l-29 39l-69 -51l-168 170l-307 -221v194h-48v-227l-94 -70q0 125 -43 209q-51 106 -168 107q-100 0 -178 -102.5t-78 -245.5zM479 100v881l94 70v-1010zM592 1458q23 -2 35 -2h18q119 0 207 82q84 80 98 199l-188 -54q0 -80 -46 -129t-124 -49v-47zM621 33v401 q74 35 135 35t153 -35v-194q0 -104 -112 -144zM621 483v355q92 -29 155 -29q72 0 133 29v-357q-77 33 -143 33q-59 0 -145 -31zM621 889v196l192 140l96 -97v-239q-65 -35 -141 -35q-78 0 -147 35z" />
<glyph unicode="&#xde;" horiz-adv-x="1212" d="M0 1012l45 -11q39 180 158 181q111 0 110 -160v-254q-188 0 -188 -166q0 -59 27 -127l45 12q-10 31 -11 52q0 39 22.5 68.5t59.5 29.5q23 0 45 -23v-376q-250 -109 -288 -340l45 -11q53 154 243 211v-471l-80 -67l31 -37l174 139l137 -139l35 37v493q76 -47 127 -98 q125 180 297 180q47 0 109 -22l16 47q-51 20 -102 24v518l131 99l-29 39l-72 -54l-169 168l-308 -221v606h-47v-637l-94 -69v409q0 322 -209 322q-123 0 -197 -121q-63 -100 -63 -231zM469 -303v870l94 72v-1036zM610 248v49q80 35 142 35q57 0 149 -35v-135 q-16 -8 -30.5 -16.5t-24.5 -16.5q-84 78 -236 119zM610 348v219q68 -31 144 -30q80 0 147 30v-219q-75 29 -149 29t-142 -29zM610 618v56l193 141l98 -98v-101q-65 -32 -143 -32q-74 0 -148 34z" />
<glyph unicode="&#xdf;" d="M37 68l31 -37l73 61l115 -112l174 145l-31 35l-49 -39l-51 47v508q70 -70 150 -70q82 0 139 51l-228 -313h160v-274q-63 -70 -63 -146q0 -45 51 -133q53 -90 53 -115q0 -49 -86 -122l29 -35q45 35 73.5 60.5t45.5 41.5q66 72 65 137q0 45 -76 129q-76 82 -75 113 q0 33 36 55q29 20 68 21q31 0 68 -19l20 39q-20 8 -36.5 13.5l-28.5 9.5v303h-189l240 330l-37 28q-55 -61 -117 -61q-64 0 -160 59q-27 -27 -51 -46t-51 -34v426q20 14 43 37q72 -78 119 -78t104 54q20 23 41 47t41 47l-33 35q-57 -70 -82 -70q-41 0 -112 145 q-102 -201 -332 -282l18 -41q33 8 50 18v-870z" />
<glyph unicode="&#xe0;" horiz-adv-x="749" d="M47 156q0 -139 178 -179l217 187q0 -102 78 -187l193 154l-31 37l-57 -47q-39 53 -39 143v330l108 88l-30 37l-70 -53l-113 112q-94 -139 -274 -186l-10 12q80 8 79 84q0 37 -25.5 60.5t-60.5 23.5q-88 0 -88 -88q0 -57 162 -225l-125 -117q-92 -86 -92 -186zM141 1108 q23 -109 113 -172q86 -62 197 -62h8t24 3v49q-6 -2 -18 -2q-55 0 -102.5 53t-47.5 106l3 19q4 20 10 59zM164 246q0 45 49 98q20 20 40.5 38.5t41.5 39.5l53 -60l37 33l-141 158q86 25 155 70l43 -39v-357l-135 -116q-25 0 -50.5 11t-46 30.5t-33.5 44t-13 49.5z" />
<glyph unicode="&#xe1;" horiz-adv-x="749" d="M47 156q0 -139 178 -179l217 187q0 -102 78 -187l193 154l-31 37l-57 -47q-39 53 -39 143v330l108 88l-30 37l-70 -53l-113 112q-94 -139 -274 -186l-10 12q80 8 79 84q0 37 -25.5 60.5t-60.5 23.5q-88 0 -88 -88q0 -57 162 -225l-125 -117q-92 -86 -92 -186zM164 246 q0 45 49 98q20 20 40.5 38.5t41.5 39.5l53 -60l37 33l-141 158q86 25 155 70l43 -39v-357l-135 -116q-25 0 -50.5 11t-46 30.5t-33.5 44t-13 49.5zM201 883q23 -2 37 -2h18q119 0 203 80q86 82 100 200l-188 -53q0 -80 -46 -129t-124 -49v-47z" />
<glyph unicode="&#xe2;" horiz-adv-x="749" d="M47 156q0 -139 178 -179l217 187q0 -102 78 -187l193 154l-31 37l-57 -47q-39 53 -39 143v330l108 88l-30 37l-70 -53l-113 112q-94 -139 -274 -186l-10 12q80 8 79 84q0 37 -25.5 60.5t-60.5 23.5q-88 0 -88 -88q0 -57 162 -225l-125 -117q-92 -86 -92 -186zM121 922 l35 -35l151 164q102 -164 322 -164v43q-164 18 -164 178q0 18 6 53l-170 -49zM164 246q0 45 49 98q20 20 40.5 38.5t41.5 39.5l53 -60l37 33l-141 158q86 25 155 70l43 -39v-357l-135 -116q-25 0 -50.5 11t-46 30.5t-33.5 44t-13 49.5z" />
<glyph unicode="&#xe3;" horiz-adv-x="749" d="M47 156q0 -139 178 -179l217 187q0 -102 78 -187l193 154l-31 37l-57 -47q-39 53 -39 143v330l108 88l-30 37l-70 -53l-113 112q-94 -139 -274 -186l-10 12q80 8 79 84q0 37 -25.5 60.5t-60.5 23.5q-88 0 -88 -88q0 -57 162 -225l-125 -117q-92 -86 -92 -186zM100 952 l39 -34q82 94 97 94q10 0 88 -43q76 -43 116 -43q61 0 101 35q37 41 64.5 71.5t43.5 52.5l-39 35q-76 -94 -94 -94q-37 0 -104 43q-66 43 -103 43q-63 0 -121 -55q-4 -4 -26.5 -31t-61.5 -74zM164 246q0 45 49 98q20 20 40.5 38.5t41.5 39.5l53 -60l37 33l-141 158 q86 25 155 70l43 -39v-357l-135 -116q-25 0 -50.5 11t-46 30.5t-33.5 44t-13 49.5z" />
<glyph unicode="&#xe4;" horiz-adv-x="749" d="M47 156q0 -139 178 -179l217 187q0 -102 78 -187l193 154l-31 37l-57 -47q-39 53 -39 143v330l108 88l-30 37l-70 -53l-113 112q-94 -139 -274 -186l-10 12q80 8 79 84q0 37 -25.5 60.5t-60.5 23.5q-88 0 -88 -88q0 -57 162 -225l-125 -117q-92 -86 -92 -186zM78 1024 l31 -37l55 47l106 -106l107 94l-139 139zM164 246q0 45 49 98q20 20 40.5 38.5t41.5 39.5l53 -60l37 33l-141 158q86 25 155 70l43 -39v-357l-135 -116q-25 0 -50.5 11t-46 30.5t-33.5 44t-13 49.5zM420 1069l141 -141l158 137l-31 37l-53 -47l-109 106z" />
<glyph unicode="&#xe5;" horiz-adv-x="749" d="M47 156q0 -139 178 -179l217 187q0 -102 78 -187l193 154l-31 37l-57 -47q-39 53 -39 143v330l108 88l-30 37l-70 -53l-113 112q-94 -139 -274 -186l-10 12q80 8 79 84q0 37 -25.5 60.5t-60.5 23.5q-88 0 -88 -88q0 -57 162 -225l-125 -117q-92 -86 -92 -186zM164 246 q0 45 49 98q20 20 40.5 38.5t41.5 39.5l53 -60l37 33l-141 158q86 25 155 70l43 -39v-357l-135 -116q-25 0 -50.5 11t-46 30.5t-33.5 44t-13 49.5zM199 1014q0 -117 202 -168q205 57 205 188q0 125 -205 170q-202 -79 -202 -190zM281 1044q0 51 51 91q190 -29 190 -138 q0 -49 -53 -84q-188 41 -188 131z" />
<glyph unicode="&#xe6;" horiz-adv-x="927" d="M47 156q0 -140 178 -179l217 187q0 -123 144 -187l303 199l-27 41l-182 -123l-94 58v114l364 242l-217 270q-84 -68 -153 -98l-99 98q-100 -143 -274 -186l-10 12q80 8 79 84q0 37 -25.5 60.5t-60.5 23.5q-88 0 -88 -88q0 -57 162 -225l-125 -117q-92 -86 -92 -186z M164 244q0 47 47 100l21 20q22 19 63 58l53 -60l37 33l-141 158q86 25 155 70l43 -39v-357l-135 -118q-51 8 -94 45q-49 39 -49 90zM586 322v303q43 14 55 20l150 -184z" />
<glyph unicode="&#xe7;" horiz-adv-x="628" d="M49 68l31 -41l72 57l147 -107l309 207l-26 41l-176 -119l-109 76v443l43 14q43 -68 53 -82q37 -43 80 -43q80 0 178 168l-39 29q-47 -74 -77 -74q-39 0 -89 141q-121 -133 -385 -133v-47l93 -2v-438zM236 -236v-45q20 -2 32 -2h17q72 0 131 41q68 45 67 115q0 90 -90 107 l-137 -97q104 0 104 -57q1 -62 -124 -62z" />
<glyph unicode="&#xe8;" horiz-adv-x="634" d="M47 70l31 -39l49 47l164 -101l303 199l-27 41l-182 -123l-94 58v114l364 242l-217 270q-158 -133 -383 -133v-47q27 -2 39 -3l12 -1h11q10 0 30 2v-434zM96 1108q23 -109 113 -172q86 -62 197 -62h8t24 3v49q-6 -2 -18 -2q-57 0 -103 51q-47 53 -47 108l3 19q3 20 10 59z M291 322v303l55 18l150 -182z" />
<glyph unicode="&#xe9;" horiz-adv-x="634" d="M47 70l31 -39l49 47l164 -101l303 199l-27 41l-182 -123l-94 58v114l364 242l-217 270q-158 -133 -383 -133v-47q27 -2 39 -3l12 -1h11q10 0 30 2v-434zM184 883q23 -2 35 -2h19q119 0 202 80q88 84 103 200l-189 -53q0 -80 -46 -129t-124 -49v-47zM291 322v303l55 18 l150 -182z" />
<glyph unicode="&#xea;" horiz-adv-x="634" d="M47 70l31 -39l49 47l164 -101l303 199l-27 41l-182 -123l-94 58v114l364 242l-217 270q-158 -133 -383 -133v-47q27 -2 39 -3l12 -1h11q10 0 30 2v-434zM104 922l35 -35l152 164q102 -164 321 -164v43q-164 18 -163 178q0 18 6 53l-170 -49zM291 322v303l55 18l150 -182z " />
<glyph unicode="&#xeb;" horiz-adv-x="634" d="M20 1024l31 -37l55 47l107 -106l106 94l-139 139zM47 70l31 -39l49 47l164 -101l303 199l-27 41l-182 -123l-94 58v114l364 242l-217 270q-158 -133 -383 -133v-47q27 -2 39 -3l12 -1h11q10 0 30 2v-434zM291 322v303l55 18l150 -182zM362 1069l142 -141l158 137l-31 37 l-53 -47l-109 106z" />
<glyph unicode="&#xec;" horiz-adv-x="444" d="M-10 1108q14 -106 108 -172q88 -62 199 -62h8t25 3v49q-6 -2 -19 -2q-57 0 -102 51q-47 53 -47 108l3 19q3 20 9 59zM-8 616l28 -36l64 55l55 -47v-393q0 -152 90 -218l185 160l-31 37l-53 -47q-47 35 -47 131v340l102 92l-31 35l-63 -51l-115 104z" />
<glyph unicode="&#xed;" horiz-adv-x="440" d="M-8 616l28 -36l64 55l55 -47v-393q0 -152 90 -218l185 160l-31 37l-53 -47q-47 35 -47 131v340l102 92l-31 35l-63 -51l-115 104zM47 883q23 -2 35 -2h18q119 0 203 80q88 84 103 200l-189 -53q0 -80 -46 -129t-124 -49v-47z" />
<glyph unicode="&#xee;" horiz-adv-x="440" d="M-31 922l33 -35l152 164q102 -164 321 -164v43q-164 18 -164 178q0 18 6 53l-170 -49zM-8 616l28 -36l64 55l55 -47v-393q0 -152 90 -218l185 160l-31 37l-53 -47q-47 35 -47 131v340l102 92l-31 35l-63 -51l-115 104z" />
<glyph unicode="&#xef;" horiz-adv-x="440" d="M-125 1026l31 -37l55 47l105 -106l106 94l-139 139zM-8 616l28 -36l64 55l55 -47v-393q0 -152 90 -218l185 160l-31 37l-53 -47q-47 35 -47 131v340l102 92l-31 35l-63 -51l-115 104zM215 1071l141 -141l158 137l-31 37l-53 -47l-108 106z" />
<glyph unicode="&#xf0;" horiz-adv-x="804" d="M49 72l33 -37l57 51l154 -109q170 133 414 134v47h-50v444l101 90l-31 37l-72 -70l-247 277l184 119l-33 45l-190 -121l-127 141l61 58l-33 34l-170 -151l144 -160l-185 -119l31 -47l195 123l135 -151q-119 -63 -322 -64v-47h52v-436zM293 184v420q70 14 133 47l88 -63 v-443q-35 -8 -63.5 -18t-51.5 -21z" />
<glyph unicode="&#xf1;" horiz-adv-x="808" d="M25 618l30 -36l62 53q37 -37 37 -141v-336l-109 -90l31 -37l67 55l115 -109l166 142l-31 37l-53 -43l-43 43v329l172 150l49 -41v-395q0 -147 84 -222l182 156l-30 37l-56 -47q-37 37 -36 139v340l106 90l-31 37l-63 -53l-113 102l-264 -229q0 86 -10 127q-16 57 -74 102 zM170 952l39 -34q82 94 96 94q10 0 88 -43q76 -43 117 -43q59 0 100 35q37 41 64.5 71.5t44.5 52.5l-39 35q-76 -94 -94 -94q-35 0 -102.5 43t-104.5 43q-63 0 -121 -55q-4 -4 -25.5 -31t-62.5 -74z" />
<glyph unicode="&#xf2;" horiz-adv-x="804" d="M49 72l33 -37l57 51l154 -109q170 133 414 134v47h-50v444l101 90l-31 37l-65 -57l-146 106q-92 -84 -197 -110q-84 -25 -221 -25v-47h52v-436zM170 1108q18 -109 111 -172q87 -62 198 -62h8t25 3v49q-6 -2 -18 -2q-57 0 -103 51q-47 53 -47 108l3 19q3 20 9 59zM293 184 v420q70 14 133 47l88 -63v-443q-35 -8 -63.5 -18t-51.5 -21z" />
<glyph unicode="&#xf3;" horiz-adv-x="804" d="M49 72l33 -37l57 51l154 -109q170 133 414 134v47h-50v444l101 90l-31 37l-65 -57l-146 106q-92 -84 -197 -110q-84 -25 -221 -25v-47h52v-436zM229 883q23 -2 35 -2h19q119 0 202 80q88 84 103 200l-189 -53q0 -80 -46 -129t-124 -49v-47zM293 184v420q70 14 133 47 l88 -63v-443q-35 -8 -63.5 -18t-51.5 -21z" />
<glyph unicode="&#xf4;" horiz-adv-x="804" d="M49 72l33 -37l57 51l154 -109q170 133 414 134v47h-50v444l101 90l-31 37l-65 -57l-146 106q-92 -84 -197 -110q-84 -25 -221 -25v-47h52v-436zM152 922l34 -35l152 164q102 -164 321 -164v43q-164 18 -163 178q0 18 6 53l-170 -49zM293 184v420q70 14 133 47l88 -63 v-443q-35 -8 -63.5 -18t-51.5 -21z" />
<glyph unicode="&#xf5;" horiz-adv-x="804" d="M49 72l33 -37l57 51l154 -109q170 133 414 134v47h-50v444l101 90l-31 37l-65 -57l-146 106q-92 -84 -197 -110q-84 -25 -221 -25v-47h52v-436zM129 952l39 -34q82 94 96 94q10 0 88 -43q76 -43 117 -43q61 0 100 35q37 41 65 71.5t44 52.5l-39 35q-76 -94 -94 -94 q-35 0 -102.5 43t-104.5 43q-63 0 -121 -55q-4 -4 -25.5 -31t-62.5 -74zM293 184v420q70 14 133 47l88 -63v-443q-35 -8 -63.5 -18t-51.5 -21z" />
<glyph unicode="&#xf6;" horiz-adv-x="804" d="M49 72l33 -37l57 51l154 -109q170 133 414 134v47h-50v444l101 90l-31 37l-65 -57l-146 106q-92 -84 -197 -110q-84 -25 -221 -25v-47h52v-436zM106 1024l31 -37l56 47l106 -106l107 94l-140 139zM293 184v420q70 14 133 47l88 -63v-443q-35 -8 -63.5 -18t-51.5 -21z M449 1069l141 -141l158 137l-31 37l-53 -47l-109 106z" />
<glyph unicode="&#xf7;" d="M41 516h694l43 88h-694zM260 283l29 -33l41 35l90 -82l139 116l-29 33l-47 -39l-88 82zM260 805l29 -33l41 37l90 -84l139 117l-29 32l-47 -38l-88 82z" />
<glyph unicode="&#xf8;" horiz-adv-x="804" d="M-10 10l30 -33l117 111l154 -111q176 133 416 134v47h-50v438l150 145l-31 37l-112 -108l-150 108q-90 -84 -197 -110q-84 -25 -221 -25v-47h51v-430zM291 184v56l223 217v-312q-35 -8 -63.5 -18t-51.5 -21zM291 305v299q70 14 133 47l90 -63v-66z" />
<glyph unicode="&#xf9;" horiz-adv-x="794" d="M12 618l31 -34l55 47q37 -41 37 -139v-340l-106 -91l30 -36l64 53l113 -101l264 226q0 -86 12 -125q14 -55 70 -101l190 158l-31 37l-63 -53q-35 35 -35 141v336l109 90l-31 37l-70 -55l-112 110l-166 -145l30 -35l54 43l43 -43v-330l-172 -149l-49 41v393q0 147 -84 225 zM164 1108q18 -109 110 -172q88 -62 199 -62h8t25 3v49q-6 -2 -19 -2q-57 0 -102 51q-47 53 -47 108l3 19q3 20 9 59z" />
<glyph unicode="&#xfa;" horiz-adv-x="794" d="M12 618l31 -34l55 47q37 -41 37 -139v-340l-106 -91l30 -36l64 53l113 -101l264 226q0 -86 12 -125q14 -55 70 -101l190 158l-31 37l-63 -53q-35 35 -35 141v336l109 90l-31 37l-70 -55l-112 110l-166 -145l30 -35l54 43l43 -43v-330l-172 -149l-49 41v393q0 147 -84 225 zM225 883q23 -2 35 -2h19q119 0 202 80q88 84 103 200l-189 -53q0 -80 -46 -129t-124 -49v-47z" />
<glyph unicode="&#xfb;" horiz-adv-x="794" d="M12 618l31 -34l55 47q37 -41 37 -139v-340l-106 -91l30 -36l64 53l113 -101l264 226q0 -86 12 -125q14 -55 70 -101l190 158l-31 37l-63 -53q-35 35 -35 141v336l109 90l-31 37l-70 -55l-112 110l-166 -145l30 -35l54 43l43 -43v-330l-172 -149l-49 41v393q0 147 -84 225 zM145 922l35 -35l152 164q102 -164 321 -164v43q-164 18 -164 178q0 18 7 53l-170 -49z" />
<glyph unicode="&#xfc;" horiz-adv-x="794" d="M12 618l31 -34l55 47q37 -41 37 -139v-340l-106 -91l30 -36l64 53l113 -101l264 226q0 -86 12 -125q14 -55 70 -101l190 158l-31 37l-63 -53q-35 35 -35 141v336l109 90l-31 37l-70 -55l-112 110l-166 -145l30 -35l54 43l43 -43v-330l-172 -149l-49 41v393q0 147 -84 225 zM100 1024l31 -37l55 47l107 -106l106 94l-139 139zM442 1069l142 -141l157 137l-30 37l-54 -47l-108 106z" />
<glyph unicode="&#xfd;" horiz-adv-x="776" d="M12 616l31 -36l53 47q31 -47 37 -68q6 -23 6 -76v-391l176 -76q-88 -35 -135 -65q-53 -35 -53 -123q0 -70 43 -110t113 -40q47 0 143 39q100 37 133 37q55 0 55 -49q0 -57 -77 -98q-63 -33 -131 -33q-60 0 -152 35l-21 -43q88 -43 166 -43q106 0 193 55q98 61 98 164 q0 68 -48 110t-116 42q-2 0 -225 -62q-14 -4 -27.5 -8t-25.5 -8q-49 0 -49 51q0 49 67 78l271 106q78 31 92 51.5t14 128.5v357l115 98l-33 37l-63 -57l-125 112l-166 -147l30 -35l52 45l47 -49v-447q0 -49 -41 -73q-12 -6 -86 -31l-90 39v493q0 102 -86 205zM215 885 q23 -2 35 -2h18q121 0 205 82q86 82 100 198l-188 -53q0 -80 -46 -129t-124 -49v-47z" />
<glyph unicode="&#xfe;" horiz-adv-x="802" d="M37 -442l33 -35l217 196v349q27 -16 58.5 -39t72.5 -52q113 137 237 138q6 0 18.5 -1t28.5 -3v49q-12 2 -18 2h-6h-6t-17 -2v432l101 92l-33 35l-61 -53l-154 112l-221 -196v477q0 74 12 115q12 47 57 104l-32 27q-102 -111 -129 -199l-27 137l-45 -12q20 -82 20 -156 v-915l-100 -92l31 -35l69 61v-438zM287 205v313l141 125l84 -59v-457q-16 -8 -29 -21q-57 101 -176 101h-6q-4 0 -14 -2z" />
<glyph unicode="&#xff;" horiz-adv-x="776" d="M12 616l31 -36l53 47q31 -47 37 -68q6 -23 6 -76v-391l176 -76q-88 -35 -135 -65q-53 -35 -53 -123q0 -70 43 -110t113 -40q47 0 143 39q100 37 133 37q55 0 55 -49q0 -57 -77 -98q-63 -33 -131 -33q-60 0 -152 35l-21 -43q88 -43 166 -43q106 0 193 55q98 61 98 164 q0 68 -48 110t-116 42q-2 0 -225 -62q-14 -4 -27.5 -8t-25.5 -8q-49 0 -49 51q0 49 67 78l271 106q78 31 92 51.5t14 128.5v357l115 98l-33 37l-63 -57l-125 112l-166 -147l30 -35l52 45l47 -49v-447q0 -49 -41 -73q-12 -6 -86 -31l-90 39v493q0 102 -86 205zM92 1024 l31 -37l55 47l107 -106l106 94l-139 139zM434 1069l141 -141l158 137l-31 37l-53 -47l-108 106z" />
<glyph unicode="&#x152;" horiz-adv-x="1830" d="M78 618q0 -268 164 -456q168 -197 432 -197q90 0 268 78q178 80 229 80q90 0 187 -55q45 -27 155 -117l195 194l-33 31l-55 -51q-63 57 -131 88v410l164 161l-33 37l-51 -51l-166 162l-164 -162v399q90 72 143 72q55 0 121 -55q14 -12 39 -37t60 -64l182 179l-35 36 l-39 -36q-88 100 -207 100q-57 0 -106 -23q-66 -47 -118 -83.5t-87 -65.5v-961q-72 -20 -213 -112q-137 -88 -213 -99v418q68 29 94 29q35 0 92 -29v-221l-30 -27l28 -36l156 127v798q0 264 -211 285l-129 -92v71l-47 3v-109l-334 -242l27 -39l80 58v-781l-50 -36l31 -39 l174 143v819l72 56v-1162q-29 -2 -47 -2h-21q-371 0 -370 625q0 260 51 383q29 72 106 158q16 16 49 51t86 86l-24 28q-471 -283 -471 -725zM766 483v359q57 -25 92 -25q41 0 94 27v-359q-47 25 -90 25q-45 0 -96 -27zM766 897v313l41 27q145 0 145 -215v-131 q-53 -27 -90 -27q-39 0 -96 33zM1241 240v465l70 65l131 -129v-412q-55 23 -99 23q-47 0 -102 -12z" />
<glyph unicode="&#x153;" horiz-adv-x="1001" d="M47 70l33 -35l57 51l154 -109q100 86 194 107l170 -107l303 199l-26 41l-182 -123l-95 58v114l365 242l-217 270q-88 -80 -178 -108l-113 108q-158 -135 -416 -135v-47h51v-436zM291 182v422q70 14 133 47l88 -63v-443q-68 -18 -115 -41zM655 322v301l56 22l149 -186z " />
<glyph unicode="&#x178;" horiz-adv-x="1255" d="M12 1010l43 -9q31 180 160 181q109 0 109 -162v-252q-188 0 -189 -164q0 -55 25 -131l47 12q-12 25 -12 52q0 98 81 98q27 0 48 -21v-475l223 -137q-55 -20 -95 -40.5t-67 -41.5q-74 -59 -74 -153q0 -80 51.5 -132.5t129.5 -52.5q76 0 135 43l194 139q45 33 86 33 q37 0 63.5 -30.5t26.5 -69.5q0 -53 -38.5 -90t-92.5 -37q-51 0 -104 27l-19 -41q63 -33 123 -33q80 0 133.5 55t53.5 135q0 88 -55.5 141.5t-143.5 53.5q-72 0 -217 -88q-143 -88 -154 -88q-33 0 -54 26.5t-21 59.5q0 80 157 139l363 135q74 29 105.5 79t31.5 136v805 l129 96l-29 39l-69 -51l-168 170l-307 -221v194h-48v-227l-94 -70q0 125 -43 209q-51 106 -168 107q-100 0 -178 -102.5t-78 -245.5zM307 1597l31 -36l55 47l107 -107l106 94l-139 140zM479 100v881l94 70v-1010zM621 33v401q74 35 135 35t153 -35v-194q0 -104 -112 -144z M621 483v355q92 -29 155 -29q72 0 133 29v-357q-77 33 -143 33q-59 0 -145 -31zM621 889v196l192 140l96 -97v-239q-65 -35 -141 -35q-78 0 -147 35zM649 1642l142 -141l157 137l-30 37l-54 -47l-108 107z" />
<glyph unicode="&#x2c6;" horiz-adv-x="1024" d="M260 922l35 -35l151 164q104 -164 322 -164v43q-164 18 -164 178q0 18 6 53l-170 -49z" />
<glyph unicode="&#x2dc;" horiz-adv-x="1024" d="M76 573l61 -43q125 115 150 115q14 0 108 -41q57 -23 88 -36t35 -15q33 -12 86 -12q98 0 156 41q57 49 99 87t69 64l-60 43q-115 -115 -147 -114q-57 0 -162 51q-106 53 -160 53q-96 0 -180 -64q-12 -8 -143 -129z" />
<glyph unicode="&#x2000;" horiz-adv-x="889" />
<glyph unicode="&#x2001;" horiz-adv-x="1778" />
<glyph unicode="&#x2002;" horiz-adv-x="889" />
<glyph unicode="&#x2003;" horiz-adv-x="1778" />
<glyph unicode="&#x2004;" horiz-adv-x="592" />
<glyph unicode="&#x2005;" horiz-adv-x="444" />
<glyph unicode="&#x2006;" horiz-adv-x="296" />
<glyph unicode="&#x2007;" horiz-adv-x="296" />
<glyph unicode="&#x2008;" horiz-adv-x="222" />
<glyph unicode="&#x2009;" horiz-adv-x="355" />
<glyph unicode="&#x200a;" horiz-adv-x="98" />
<glyph unicode="&#x2010;" horiz-adv-x="425" d="M41 276l45 -18l31 72h133q68 0 90 53l45 113l-45 18l-27 -63h-159q-39 0 -72 -70q-4 -8 -14.5 -33.5t-26.5 -71.5z" />
<glyph unicode="&#x2011;" horiz-adv-x="425" d="M41 276l45 -18l31 72h133q68 0 90 53l45 113l-45 18l-27 -63h-159q-39 0 -72 -70q-4 -8 -14.5 -33.5t-26.5 -71.5z" />
<glyph unicode="&#x2012;" horiz-adv-x="425" d="M41 276l45 -18l31 72h133q68 0 90 53l45 113l-45 18l-27 -63h-159q-39 0 -72 -70q-4 -8 -14.5 -33.5t-26.5 -71.5z" />
<glyph unicode="&#x2013;" d="M82 276l45 -18l31 72h442q72 0 92 57l43 109l-43 18l-26 -63h-471q-39 0 -72 -70q-4 -8 -14.5 -33.5t-26.5 -71.5z" />
<glyph unicode="&#x2014;" horiz-adv-x="985" d="M41 276l45 -18l31 72h692q72 0 92 57l43 109l-43 18l-27 -63h-720q-39 0 -72 -70q-4 -8 -14.5 -33.5t-26.5 -71.5z" />
<glyph unicode="&#x2018;" horiz-adv-x="475" d="M102 987q0 -84 60 -168l200 170l-30 37l-64 -53q-43 62 -43 117q0 92 125 186l-22 43q-98 -47 -160 -135q-66 -94 -66 -197z" />
<glyph unicode="&#x2019;" horiz-adv-x="477" d="M115 1149l30 -37l64 53q43 -59 43 -116q0 -94 -125 -189l23 -41q98 45 159 135q66 94 66 197q0 86 -58 168z" />
<glyph unicode="&#x201a;" horiz-adv-x="477" d="M115 59l30 -36l64 53q43 -60 43 -115q0 -94 -125 -188l23 -41q98 45 161.5 135t63.5 194q0 86 -58 168z" />
<glyph unicode="&#x201c;" horiz-adv-x="841" d="M102 987q0 -84 60 -168l200 170l-30 37l-64 -53q-43 62 -43 117q0 92 125 186l-22 43q-98 -47 -160 -135q-66 -94 -66 -197zM469 987q0 -84 59 -168l201 170l-31 37l-63 -53q-43 58 -43 117q0 92 125 186l-23 43q-96 -45 -159 -133q-66 -94 -66 -199z" />
<glyph unicode="&#x201d;" horiz-adv-x="841" d="M113 1149l30 -37l64 53q43 -61 43 -116q0 -94 -125 -189l22 -41q94 45 160 135q66 96 66 197q0 86 -58 168zM479 1149l31 -37l63 53q43 -59 43 -116q0 -94 -124 -189l22 -41q94 45 160 135q66 94 65 197q0 86 -57 168z" />
<glyph unicode="&#x201e;" horiz-adv-x="841" d="M113 59l30 -36l64 53q43 -62 43 -115q0 -94 -125 -188l22 -41q96 47 158 135q68 94 68 194q0 86 -58 168zM479 59l31 -36l63 53q43 -60 43 -115q0 -94 -124 -188l22 -41q94 45 160 135q66 94 65 194q0 86 -57 168z" />
<glyph unicode="&#x2022;" horiz-adv-x="1228" d="M406 586q0 -82 55 -139.5t141 -57.5t143.5 55.5t57.5 141.5q0 41 -16.5 76.5t-44 62.5t-63.5 42t-77 15q-86 0 -141 -55t-55 -141z" />
<glyph unicode="&#x2026;" horiz-adv-x="1433" d="M35 70l31 -37l59 51l117 -107l200 166l-32 37l-66 -57l-117 108zM512 70l31 -37l61 51l115 -107l201 166l-31 37l-68 -57l-116 108zM991 70l31 -37l59 51l117 -107l199 166l-31 37l-68 -57l-114 108z" />
<glyph unicode="&#x202f;" horiz-adv-x="355" />
<glyph unicode="&#x2039;" horiz-adv-x="563" d="M59 360q131 -61 193 -122q51 -53 129 -191l70 152q-125 168 -285 204l258 267l-33 35z" />
<glyph unicode="&#x203a;" horiz-adv-x="563" d="M113 553q125 -172 282 -205l-256 -266l33 -35l332 344q-225 100 -322 314z" />
<glyph unicode="&#x205f;" horiz-adv-x="444" />
<glyph unicode="&#x2122;" horiz-adv-x="1654" d="M14 1167q0 -59 58 -102l20 37q-31 25 -31 59q0 57 52 94q45 33 106 33q59 0 176 -45l-159 -153l24 -33l37 35v-301l-16 -13l22 -33l98 68v379l35 33l72 -33v-528q-72 -6 -80 -7q-106 0 -182 101q-70 88 -70 200q0 135 119 252l-35 31q-193 -160 -192 -340q0 -137 92 -235 q94 -101 229 -101q178 0 295 178l-33 21q-35 -37 -102 -86v514l135 131l-31 29l-65 -62q-147 74 -301 74q-96 0 -178 -47q-94 -57 -95 -150zM621 514q0 -92 60 -144.5t153 -52.5q72 0 124 33l-16 35q-47 -27 -106 -27q-66 0 -117 39q-55 43 -55 107q0 41 28.5 69.5 t69.5 28.5q18 0 90 -22q68 -20 90 -21q70 0 113 49q37 45 37 119v195h75v-224l-45 -32l25 -33l27 18l110 -102l135 102l-26 33l-25 -16v254h78v-209q0 -96 82 -160l127 123l-29 26l-41 -34q-35 18 -35 75v478l105 71l-25 33l-71 -47l-93 88l-98 -70v56h-41v-82l-57 -43 q0 96 -86 139l-92 -66v52h-41v-82q-35 -23 -60.5 -38t-42.5 -26q-57 -39 -57 -176q-109 0 -109 -98q0 -37 19 -82l39 16q-8 16 -9 33q0 45 39 45q12 0 21 -8v-154l-31 -24l27 -31l108 86v371l56 37v-478q0 -76 -68 -75q-29 0 -84 18q-53 20 -86 21q-86 0 -139 -53.5 t-53 -139.5zM1092 1022v227l30 19q45 -14 45 -84v-162h-75zM1272 721v459l55 43v-555zM1368 1022v227l31 21l47 -47v-201h-78z" />
<glyph unicode="&#x25fc;" horiz-adv-x="768" d="M0 0v768h768v-768h-768z" />
</font>
</defs>
</svg>
