<?xml version="1.0" encoding="UTF-8" standalone="no"?>
<!-- Created with Inkscape (http://www.inkscape.org/) -->

<svg
   xmlns:dc="http://purl.org/dc/elements/1.1/"
   xmlns:cc="http://creativecommons.org/ns#"
   xmlns:rdf="http://www.w3.org/1999/02/22-rdf-syntax-ns#"
   xmlns:svg="http://www.w3.org/2000/svg"
   xmlns="http://www.w3.org/2000/svg"
   xmlns:sodipodi="http://sodipodi.sourceforge.net/DTD/sodipodi-0.dtd"
   xmlns:inkscape="http://www.inkscape.org/namespaces/inkscape"
   width="710.64282"
   height="710.64282"
   id="svg2"
   version="1.1"
   inkscape:version="0.91pre2_64bit r13532"
   viewBox="0 0 710.64282 710.64283"
   sodipodi:docname="Terreria.svg">
  <defs
     id="defs4" />
  <sodipodi:namedview
     id="base"
     pagecolor="#ffffff"
     bordercolor="#666666"
     borderopacity="1.0"
     inkscape:pageopacity="0.0"
     inkscape:pageshadow="2"
     inkscape:zoom="0.7"
     inkscape:cx="-175.14649"
     inkscape:cy="308.78585"
     inkscape:document-units="px"
     inkscape:current-layer="layer1"
     showgrid="false"
     fit-margin-top="0"
     fit-margin-left="0"
     fit-margin-right="0"
     fit-margin-bottom="0"
     inkscape:window-width="1920"
     inkscape:window-height="1057"
     inkscape:window-x="-8"
     inkscape:window-y="-8"
     inkscape:window-maximized="1" />
  <metadata
     id="metadata7">
    <rdf:RDF>
      <cc:Work
         rdf:about="">
        <dc:format>image/svg+xml</dc:format>
        <dc:type
           rdf:resource="http://purl.org/dc/dcmitype/StillImage" />
        <dc:title></dc:title>
      </cc:Work>
    </rdf:RDF>
  </metadata>
  <g
     inkscape:label="Layer 1"
     inkscape:groupmode="layer"
     id="layer1"
     transform="translate(-282.5359,-240.61222)">
    <path
       style="fill:#ffffff;fill-opacity:1;fill-rule:evenodd;stroke:#000000;stroke-width:3.5;stroke-linecap:butt;stroke-linejoin:round;stroke-miterlimit:4;stroke-dasharray:none;stroke-opacity:1"
       d="m 520.00011,936.64792 21.42858,-30.00001 27.14285,7.14286 30,-57.14286 0,-114.28572 -62.85714,-45.71428 -22.85714,27.14285 -27.14286,7.14286 -22.85714,-38.57143 -18.57143,0 24.28571,-32.85714 -12.85714,-17.14286 62.85714,-41.42857 35.71429,25.71429 -12.85714,35.71428 55.71428,32.85715 -10,-88.57143 12.85714,-55.71429 -35.71428,-27.14286 -17.14286,31.42858 -21.42857,-38.57143 -24.28571,-11.42857 -31.42858,-35.71429 -2.85714,-47.14286 22.85714,-8.57143 -22.85714,-31.42857 30,-30 12.85714,-30 -12.85714,-20.00001 54.28572,-40 44.28571,7.14286 25.71429,-24.28571 22.85714,10 22.85714,-12.85715 30,30 17.14286,-17.14285 37.14286,37.14285 1.42857,24.28573 52.85714,51.42857 -18.57143,24.28571 5.71429,71.42857 -28.57143,48.57143 -34.28572,20 -35.71428,-21.42857 -17.14286,25.71429 -2.85714,247.14285 57.14286,-28.57142 -4.28572,-24.28572 -11.42857,-12.85714 44.28571,-28.57143 52.85715,35.71429 -12.85715,17.14285 31.42858,28.57143 -12.85715,15.71429 -32.85714,25.71428 -44.28571,-25.71428 -68.57143,48.57143 25.71428,58.57142 57.14286,27.14287 -8.57143,24.28572 -62.85714,-5.71429 -61.42857,8.57143 -42.85715,-12.85714 -38.57142,14.28571 z"
       id="path4148"
       inkscape:connector-curvature="0" />
  </g>
</svg>
