<?xml version="1.0" encoding="UTF-8" standalone="no"?>
<!-- Created with Inkscape (http://www.inkscape.org/) -->

<svg
   xmlns:dc="http://purl.org/dc/elements/1.1/"
   xmlns:cc="http://creativecommons.org/ns#"
   xmlns:rdf="http://www.w3.org/1999/02/22-rdf-syntax-ns#"
   xmlns:svg="http://www.w3.org/2000/svg"
   xmlns="http://www.w3.org/2000/svg"
   xmlns:sodipodi="http://sodipodi.sourceforge.net/DTD/sodipodi-0.dtd"
   xmlns:inkscape="http://www.inkscape.org/namespaces/inkscape"
   width="710.64282"
   height="710.64282"
   id="svg2"
   version="1.1"
   inkscape:version="0.91pre2_64bit r13532"
   viewBox="0 0 710.64282 710.64283"
   sodipodi:docname="Ultimate.svg"
   inkscape:export-filename="D:\Documents\Coder Dojo\Graphics\TeamLogos\Terreria.png"
   inkscape:export-xdpi="25.33"
   inkscape:export-ydpi="25.33">
  <defs
     id="defs4" />
  <sodipodi:namedview
     id="base"
     pagecolor="#ffb8ff"
     bordercolor="#666666"
     borderopacity="1.0"
     inkscape:pageopacity="0"
     inkscape:pageshadow="2"
     inkscape:zoom="0.7"
     inkscape:cx="96.414026"
     inkscape:cy="308.78585"
     inkscape:document-units="px"
     inkscape:current-layer="layer1"
     showgrid="false"
     fit-margin-top="0"
     fit-margin-left="0"
     fit-margin-right="0"
     fit-margin-bottom="0"
     inkscape:window-width="1920"
     inkscape:window-height="1057"
     inkscape:window-x="-8"
     inkscape:window-y="-8"
     inkscape:window-maximized="1"
     showborder="true" />
  <metadata
     id="metadata7">
    <rdf:RDF>
      <cc:Work
         rdf:about="">
        <dc:format>image/svg+xml</dc:format>
        <dc:type
           rdf:resource="http://purl.org/dc/dcmitype/StillImage" />
        <dc:title></dc:title>
      </cc:Work>
    </rdf:RDF>
  </metadata>
  <g
     inkscape:label="Layer 1"
     inkscape:groupmode="layer"
     id="layer1"
     transform="translate(-282.5359,-240.61222)">
    <path
       sodipodi:type="star"
       style="fill:#ffffff;fill-opacity:1;stroke:#000000;stroke-width:6;stroke-linejoin:round;stroke-miterlimit:4;stroke-dasharray:none;stroke-opacity:1"
       id="path4197"
       sodipodi:sides="8"
       sodipodi:cx="575.39307"
       sodipodi:cy="655.54077"
       sodipodi:r1="291.93582"
       sodipodi:r2="204.35509"
       sodipodi:arg1="0.78193797"
       sodipodi:arg2="1.1746371"
       inkscape:flatsided="false"
       inkscape:rounded="0.01"
       inkscape:randomized="0"
       d="m 782.53592,861.25505 c -0.91206,0.91839 -127.09266,-17.68597 -128.28674,-17.18652 -1.19409,0.49945 -76.55164,103.40184 -77.84596,103.40632 -1.29432,0.004 -77.36221,-102.37395 -78.55972,-102.86513 -1.19751,-0.49118 -127.24632,18.98596 -128.16471,18.0739 -0.91839,-0.91206 17.68597,-127.09266 17.18652,-128.28674 -0.49945,-1.19408 -103.40184,-76.55164 -103.40632,-77.84596 -0.004,-1.29432 102.37395,-77.3622 102.86513,-78.55971 0.49118,-1.19751 -18.98596,-127.24633 -18.0739,-128.16472 0.91205,-0.91839 127.09265,17.68598 128.28674,17.18652 1.19408,-0.49945 76.55163,-103.40183 77.84595,-103.40631 1.29432,-0.004 77.36221,102.37395 78.55972,102.86512 1.19751,0.49118 127.24632,-18.98595 128.16471,-18.0739 0.91839,0.91206 -17.68597,127.09266 -17.18652,128.28674 0.49946,1.19408 103.40184,76.55164 103.40632,77.84596 0.004,1.29432 -102.37395,77.36221 -102.86513,78.55972 -0.49117,1.19751 18.98596,127.24632 18.07391,128.16471 z"
       transform="matrix(1.2059195,0,0,1.1936858,-57.770371,-184.11181)" />
    <flowRoot
       xml:space="preserve"
       id="flowRoot4158"
       style="fill:black;stroke:none;stroke-opacity:1;stroke-width:1px;stroke-linejoin:miter;stroke-linecap:butt;fill-opacity:1;font-family:sans-serif;font-style:normal;font-weight:normal;font-size:40px;line-height:125%;letter-spacing:0px;word-spacing:0px"><flowRegion
         id="flowRegion4160"><rect
           id="rect4162"
           width="81.428574"
           height="67.14286"
           x="87.14286"
           y="136.3571" /></flowRegion><flowPara
         id="flowPara4164"></flowPara></flowRoot>    <g
       id="g4181"
       transform="matrix(0.84319231,0,0,0.84319231,94.499248,131.96263)">
      <g
         transform="translate(379.67876,193.46936)"
         style="font-style:normal;font-variant:normal;font-weight:normal;font-stretch:normal;font-size:180px;line-height:125%;font-family:'Spin Cycle 3D OT';-inkscape-font-specification:'Spin Cycle 3D OT, Normal';text-align:start;letter-spacing:0px;word-spacing:0px;writing-mode:lr-tb;text-anchor:start;fill:#000000;fill-opacity:1;stroke:none;stroke-width:1px;stroke-linecap:butt;stroke-linejoin:miter;stroke-opacity:1"
         id="g4177">
        <path
           sodipodi:nodetypes="sscccssscccsscc"
           d="m 255.63384,432.56837 c -35.42911,0 -38.64993,-20.6133 -38.64993,-44.44742 l 0,-193.8938 -25.76662,-28.98745 -114.01729,0 0,195.18214 c 0,117.88228 94.69232,212.5746 206.13295,212.5746 99.20148,0 176.50134,-85.67401 176.50134,-184.87549 l 0,-193.8938 C 446.30681,178.12301 437.2885,168.46053 434.06767,165.2397 l -114.01729,0 0,195.18214 c 0,36.07326 -27.05495,72.14653 -64.41654,72.14653 z m 77.94402,-72.14653 c -287.14715,264.90924 -143.57358,132.45462 0,0 z"
           id="path4179"
           inkscape:connector-curvature="0"
           style="fill:#ffffff;fill-opacity:1" />
      </g>
      <g
         id="flowRoot4166"
         style="font-style:normal;font-variant:normal;font-weight:normal;font-stretch:normal;font-size:180px;line-height:125%;font-family:'Spin Cycle 3D OT';-inkscape-font-specification:'Spin Cycle 3D OT, Normal';text-align:start;letter-spacing:0px;word-spacing:0px;writing-mode:lr-tb;text-anchor:start;fill:#000000;fill-opacity:1;stroke:none;stroke-width:1px;stroke-linecap:butt;stroke-linejoin:miter;stroke-opacity:1"
         transform="translate(379.67876,193.46936)">
        <path
           style="fill:#000000;fill-opacity:1"
           inkscape:connector-curvature="0"
           id="path4175"
           d="m 255.63384,432.56837 c -35.42911,0 -38.64993,-20.6133 -38.64993,-44.44742 l 0,-193.8938 -25.76662,-28.98745 -114.01729,0 0,195.18214 c 0,117.88228 94.69232,212.5746 206.13295,212.5746 99.20148,0 176.50134,-85.67401 176.50134,-184.87549 l 0,-193.8938 C 446.30681,178.12301 437.2885,168.46053 434.06767,165.2397 l -114.01729,0 0,195.18214 c 0,36.07326 -27.05495,72.14653 -64.41654,72.14653 z m 0,14.17164 c 45.73574,0 77.94402,-40.58242 77.94402,-86.31817 l 0,-181.65467 86.96234,0 0,181.65467 c 0,94.04816 -72.7907,173.28051 -164.90636,173.28051 -90.82734,0 -164.906365,-78.58819 -164.906365,-173.28051 l 0,-181.65467 86.962335,0 0,181.65467 c 0,45.73575 32.20828,86.31817 77.94403,86.31817 z" />
      </g>
    </g>
  </g>
</svg>
