<?xml version="1.0" encoding="UTF-8" standalone="no"?>
<svg
   xmlns:dc="http://purl.org/dc/elements/1.1/"
   xmlns:cc="http://creativecommons.org/ns#"
   xmlns:rdf="http://www.w3.org/1999/02/22-rdf-syntax-ns#"
   xmlns:svg="http://www.w3.org/2000/svg"
   xmlns="http://www.w3.org/2000/svg"
   id="svg2"
   viewBox="0 0 1091.6556 1092"
   style="clip-rule:evenodd;fill-rule:evenodd;image-rendering:optimizeQuality;shape-rendering:geometricPrecision;text-rendering:geometricPrecision"
   version="1.1"
   height="82.09668"
   width="82.09668"
   xml:space="preserve"><metadata
     id="metadata19"><rdf:RDF><cc:Work
         rdf:about=""><dc:format>image/svg+xml</dc:format><dc:type
           rdf:resource="http://purl.org/dc/dcmitype/StillImage" /><dc:title></dc:title></cc:Work></rdf:RDF></metadata><defs
     id="defs4"><style
       id="style6"
       type="text/css">
   
    .fil0 {fill:#FEFEFE}
    .fil1 {fill:black}
   
  </style></defs><circle
     style="fill:#fefefe"
     r="536"
     cy="546"
     cx="543.3844"
	 fill="#ffffff"/><path
     style="fill:#000000"
     id="path15"
     d="m 545.38443,0 c 302,0 545.99997,245 545.99997,546 0,302 -244.99997,546 -545.99997,546 -302,0 -546.00000185,-245 -546.00000185,-546 C -0.61557185,244 244.38443,0 545.38443,0 Z m -81,333 0,-197 c 0,-9 3,-16 9,-22 6,-6 14,-9 22,-9 l 103,0 c 9,0 16,3 22,9 6,6 9,14 9,22 l 0,197 c 0,9 -3,16 -9,22 -6,6 -14,9 -23,9 l -103,0 c -9,0 -16,-3 -23,-9 -6,-6 -9,-14 -9,-22 z m 134,-1 0,-195 -101,0 0,195 101,0 z m -96,598 51,0 0,-195 -50,0 c -5,0 -8,-2 -12,-5 -3,-3 -5,-7 -5,-12 0,-5 2,-8 5,-12 3,-3 7,-5 12,-5 l 83,0 0,228 33,0 0,-69 c 0,-4 2,-8 5,-12 3,-3 7,-5 12,-5 5,0 8,2 12,5 3,3 5,7 5,12 l 0,85 c 0,5 -2,9 -5,12 -3,3 -7,5 -12,5 l -133,0 c -5,0 -8,-2 -12,-5 -3,-3 -5,-7 -5,-12 0,-4 2,-8 5,-11 3,-3 7,-5 12,-5 z m 38,-902 c -3,0 -5,0 -8,0 -282,4 -510.000002,235 -510.000002,518 0,284 228.000002,514 511.000002,518 -140,-4 -252,-118 -252,-259 0,-143 116,-259 259,-259 143,0 259,-116 259,-259 0,-143 -116,-259 -259,-259 z"
     class="fil1" />
</svg>